mtllib Warframe1999_Protoframe_LowPoly_v2.mtl
v -0.3100 1.4900 -0.2550
v 0.3100 1.4900 -0.2550
v 0.3100 2.1900 -0.2550
v -0.3100 2.1900 -0.2550
v -0.3100 1.4900 0.2950
v 0.3100 1.4900 0.2950
v 0.3100 2.1900 0.2950
v -0.3100 2.1900 0.2950
v -0.1500 2.0385 -0.2346
v 0.1500 2.0385 -0.2346
v 0.1500 2.2783 -0.2250
v -0.1500 2.2783 -0.2250
v -0.1500 2.0217 0.1850
v 0.1500 2.0217 0.1850
v 0.1500 2.2615 0.1946
v -0.1500 2.2615 0.1946
v -0.1700 1.7700 0.2800
v 0.1700 1.7700 0.2800
v 0.1700 1.9100 0.2800
v -0.1700 1.9100 0.2800
v -0.1700 1.7700 0.3400
v 0.1700 1.7700 0.3400
v 0.1700 1.9100 0.3400
v -0.1700 1.9100 0.3400
v -0.1900 1.4300 -0.1700
v 0.1900 1.4300 -0.1700
v 0.1900 1.6100 -0.1700
v -0.1900 1.6100 -0.1700
v -0.1900 1.4300 0.1700
v 0.1900 1.4300 0.1700
v 0.1900 1.6100 0.1700
v -0.1900 1.6100 0.1700
v -0.4750 0.8000 -0.2800
v 0.4750 0.8000 -0.2800
v 0.4750 1.6400 -0.2800
v -0.4750 1.6400 -0.2800
v -0.4750 0.8000 0.2800
v 0.4750 0.8000 0.2800
v 0.4750 1.6400 0.2800
v -0.4750 1.6400 0.2800
v -0.3600 1.1300 0.2900
v 0.3600 1.1300 0.2900
v 0.3600 1.5900 0.2900
v -0.3600 1.5900 0.2900
v -0.3600 1.1300 0.3900
v 0.3600 1.1300 0.3900
v 0.3600 1.5900 0.3900
v -0.3600 1.5900 0.3900
v -0.0600 0.9700 0.3800
v 0.0600 0.9700 0.3800
v 0.0600 1.4900 0.3800
v -0.0600 1.4900 0.3800
v -0.0600 0.9700 0.4600
v 0.0600 0.9700 0.4600
v 0.0600 1.4900 0.4600
v -0.0600 1.4900 0.4600
v -0.2900 0.7400 -0.1600
v 0.2900 0.7400 -0.1600
v 0.2900 1.0200 -0.1600
v -0.2900 1.0200 -0.1600
v -0.2900 0.7400 0.2000
v 0.2900 0.7400 0.2000
v 0.2900 1.0200 0.2000
v -0.2900 1.0200 0.2000
v -0.5100 0.4500 -0.1400
v 0.5100 0.4500 -0.1400
v 0.5100 0.8700 -0.1400
v -0.5100 0.8700 -0.1400
v -0.5100 0.4500 0.3400
v 0.5100 0.4500 0.3400
v 0.5100 0.8700 0.3400
v -0.5100 0.8700 0.3400
v -0.0600 1.3100 -0.3750
v 0.0600 1.3100 -0.3750
v 0.0600 1.5300 -0.3750
v -0.0600 1.5300 -0.3750
v -0.0600 1.3100 -0.2450
v 0.0600 1.3100 -0.2450
v 0.0600 1.5300 -0.2450
v -0.0600 1.5300 -0.2450
v -0.0700 1.0900 -0.4100
v 0.0700 1.0900 -0.4100
v 0.0700 1.3100 -0.4100
v -0.0700 1.3100 -0.4100
v -0.0700 1.0900 -0.2700
v 0.0700 1.0900 -0.2700
v 0.0700 1.3100 -0.2700
v -0.0700 1.3100 -0.2700
v -0.0600 0.8900 -0.3700
v 0.0600 0.8900 -0.3700
v 0.0600 1.0900 -0.3700
v -0.0600 1.0900 -0.3700
v -0.0600 0.8900 -0.2500
v 0.0600 0.8900 -0.2500
v 0.0600 1.0900 -0.2500
v -0.0600 1.0900 -0.2500
v -0.7254 1.1658 -0.3129
v -0.3296 1.1181 -0.1807
v -0.2722 1.5946 -0.1807
v -0.6680 1.6423 -0.3129
v -0.8878 1.1854 0.1807
v -0.4920 1.1377 0.3129
v -0.4346 1.6142 0.3129
v -0.8304 1.6619 0.1807
v 0.3296 1.1181 -0.1807
v 0.7254 1.1658 -0.3129
v 0.6680 1.6423 -0.3129
v 0.2722 1.5946 -0.1807
v 0.4920 1.1377 0.3129
v 0.8878 1.1854 0.1807
v 0.8304 1.6619 0.1807
v 0.4346 1.6142 0.3129
v -0.8543 0.7600 -0.1642
v -0.5558 0.7600 -0.1343
v -0.5558 1.3400 -0.1343
v -0.8543 1.3400 -0.1642
v -0.8842 0.7600 0.1343
v -0.5857 0.7600 0.1642
v -0.5857 1.3400 0.1642
v -0.8842 1.3400 0.1343
v 0.5558 0.7600 -0.1343
v 0.8543 0.7600 -0.1642
v 0.8543 1.3400 -0.1642
v 0.5558 1.3400 -0.1343
v 0.5857 0.7600 0.1642
v 0.8842 0.7600 0.1343
v 0.8842 1.3400 0.1343
v 0.5857 1.3400 0.1642
v -0.8500 0.8200 -0.2100
v -0.5900 0.8200 -0.2100
v -0.5900 0.8200 0.2900
v -0.8500 0.8200 0.2900
v -0.8500 0.5400 -0.2100
v -0.5900 0.5400 -0.2100
v -0.5900 0.5400 0.2900
v -0.8500 0.5400 0.2900
v 0.5900 0.8200 -0.2100
v 0.8500 0.8200 -0.2100
v 0.8500 0.8200 0.2900
v 0.5900 0.8200 0.2900
v 0.5900 0.5400 -0.2100
v 0.8500 0.5400 -0.2100
v 0.8500 0.5400 0.2900
v 0.5900 0.5400 0.2900
v -0.8994 0.2790 -0.0700
v -0.5605 0.2518 -0.0700
v -0.5406 0.5010 -0.0700
v -0.8795 0.5282 -0.0700
v -0.8994 0.2790 0.2900
v -0.5605 0.2518 0.2900
v -0.5406 0.5010 0.2900
v -0.8795 0.5282 0.2900
v 0.5605 0.2518 -0.0700
v 0.8994 0.2790 -0.0700
v 0.8795 0.5282 -0.0700
v 0.5406 0.5010 -0.0700
v 0.5605 0.2518 0.2900
v 0.8994 0.2790 0.2900
v 0.8795 0.5282 0.2900
v 0.5406 0.5010 0.2900
v -0.7800 1.0600 0.0200
v -0.6600 1.0600 0.0200
v -0.6600 1.2600 0.0200
v -0.7800 1.2600 0.0200
v -0.7800 1.0600 0.3000
v -0.6600 1.0600 0.3000
v -0.6600 1.2600 0.3000
v -0.7800 1.2600 0.3000
v 0.6600 1.0600 0.0200
v 0.7800 1.0600 0.0200
v 0.7800 1.2600 0.0200
v 0.6600 1.2600 0.0200
v 0.6600 1.0600 0.3000
v 0.7800 1.0600 0.3000
v 0.7800 1.2600 0.3000
v 0.6600 1.2600 0.3000
v -0.4055 -0.0500 -0.2128
v -0.0265 -0.0500 -0.1862
v -0.0265 0.6100 -0.1862
v -0.4055 0.6100 -0.2128
v -0.4335 -0.0500 0.1862
v -0.0545 -0.0500 0.2128
v -0.0545 0.6100 0.2128
v -0.4335 0.6100 0.1862
v 0.0265 -0.0500 -0.1862
v 0.4055 -0.0500 -0.2128
v 0.4055 0.6100 -0.2128
v 0.0265 0.6100 -0.1862
v 0.0545 -0.0500 0.2128
v 0.4335 -0.0500 0.1862
v 0.4335 0.6100 0.1862
v 0.0545 0.6100 0.2128
v -0.4120 -0.2400 0.0109
v -0.0140 -0.2400 0.0508
v -0.0140 0.0400 0.0508
v -0.4120 0.0400 0.0109
v -0.4460 -0.2400 0.3492
v -0.0480 -0.2400 0.3891
v -0.0480 0.0400 0.3891
v -0.4460 0.0400 0.3492
v 0.0140 -0.2400 0.0508
v 0.4120 -0.2400 0.0109
v 0.4120 0.0400 0.0109
v 0.0140 0.0400 0.0508
v 0.0480 -0.2400 0.3891
v 0.4460 -0.2400 0.3492
v 0.4460 0.0400 0.3492
v 0.0480 0.0400 0.3891
v -0.3859 -0.8300 -0.1630
v -0.0470 -0.8300 -0.1359
v -0.0470 -0.1100 -0.1359
v -0.3859 -0.1100 -0.1630
v -0.4130 -0.8300 0.1759
v -0.0741 -0.8300 0.2030
v -0.0741 -0.1100 0.2030
v -0.4130 -0.1100 0.1759
v 0.0470 -0.8300 -0.1359
v 0.3859 -0.8300 -0.1630
v 0.3859 -0.1100 -0.1630
v 0.0470 -0.1100 -0.1359
v 0.0741 -0.8300 0.2030
v 0.4130 -0.8300 0.1759
v 0.4130 -0.1100 0.1759
v 0.0741 -0.1100 0.2030
v -0.4500 -1.0000 -0.1100
v -0.0100 -1.0000 -0.1100
v -0.0100 -0.7600 -0.1100
v -0.4500 -0.7600 -0.1100
v -0.4500 -1.0000 0.4100
v -0.0100 -1.0000 0.4100
v -0.0100 -0.7600 0.4100
v -0.4500 -0.7600 0.4100
v 0.0100 -1.0000 -0.1100
v 0.4500 -1.0000 -0.1100
v 0.4500 -0.7600 -0.1100
v 0.0100 -0.7600 -0.1100
v 0.0100 -1.0000 0.4100
v 0.4500 -1.0000 0.4100
v 0.4500 -0.7600 0.4100
v 0.0100 -0.7600 0.4100
v -0.6215 0.4526 -0.1300
v -0.4677 0.4084 -0.1300
v -0.3185 0.9274 -0.1300
v -0.4723 0.9716 -0.1300
v -0.6215 0.4526 0.2100
v -0.4677 0.4084 0.2100
v -0.3185 0.9274 0.2100
v -0.4723 0.9716 0.2100
v 0.4677 0.4084 -0.1300
v 0.6215 0.4526 -0.1300
v 0.4723 0.9716 -0.1300
v 0.3185 0.9274 -0.1300
v 0.4677 0.4084 0.2100
v 0.6215 0.4526 0.2100
v 0.4723 0.9716 0.2100
v 0.3185 0.9274 0.2100
v -0.3820 0.9833 -0.4649
v -0.2626 0.9713 -0.4649
v -0.2153 1.4435 -0.3931
v -0.3347 1.4555 -0.3931
v -0.3847 0.9565 -0.2869
v -0.2653 0.9445 -0.2869
v -0.2180 1.4167 -0.2151
v -0.3374 1.4287 -0.2151
v 0.2653 0.9445 -0.3931
v 0.3847 0.9565 -0.3931
v 0.3374 1.4287 -0.4649
v 0.2180 1.4167 -0.4649
v 0.2626 0.9713 -0.2151
v 0.3820 0.9833 -0.2151
v 0.3347 1.4555 -0.2869
v 0.2153 1.4435 -0.2869
v -0.4229 1.6692 -0.4000
v -0.3438 1.6573 -0.4000
v -0.2571 2.2308 -0.4000
v -0.3362 2.2427 -0.4000
v -0.4229 1.6692 -0.3200
v -0.3438 1.6573 -0.3200
v -0.2571 2.2308 -0.3200
v -0.3362 2.2427 -0.3200
v 0.3438 1.6573 -0.4000
v 0.4229 1.6692 -0.4000
v 0.3362 2.2427 -0.4000
v 0.2571 2.2308 -0.4000
v 0.3438 1.6573 -0.3200
v 0.4229 1.6692 -0.3200
v 0.3362 2.2427 -0.3200
v 0.2571 2.2308 -0.3200
v -0.2800 2.5300 -0.2200
v 0.2800 2.5300 -0.2200
v 0.2800 3.1900 -0.2200
v -0.2800 3.1900 -0.2200
v -0.2800 2.5300 0.3400
v 0.2800 2.5300 0.3400
v 0.2800 3.1900 0.3400
v -0.2800 3.1900 0.3400
v -0.2350 2.5650 0.1950
v 0.2350 2.5650 0.1950
v 0.2350 3.0950 0.1950
v -0.2350 3.0950 0.1950
v -0.2350 2.5650 0.3750
v 0.2350 2.5650 0.3750
v 0.2350 3.0950 0.3750
v -0.2350 3.0950 0.3750
v -0.2200 2.5000 0.0000
v 0.2200 2.5000 0.0000
v 0.2200 2.8600 0.0000
v -0.2200 2.8600 0.0000
v -0.2200 2.5000 0.3600
v 0.2200 2.5000 0.3600
v 0.2200 2.8600 0.3600
v -0.2200 2.8600 0.3600
v -0.3400 2.7300 -0.0400
v -0.2000 2.7300 -0.0400
v -0.2000 2.9500 -0.0400
v -0.3400 2.9500 -0.0400
v -0.3400 2.7300 0.1000
v -0.2000 2.7300 0.1000
v -0.2000 2.9500 0.1000
v -0.3400 2.9500 0.1000
v 0.2000 2.7300 -0.0400
v 0.3400 2.7300 -0.0400
v 0.3400 2.9500 -0.0400
v 0.2000 2.9500 -0.0400
v 0.2000 2.7300 0.1000
v 0.3400 2.7300 0.1000
v 0.3400 2.9500 0.1000
v 0.2000 2.9500 0.1000
v -0.3100 2.8200 -0.2900
v 0.3100 2.8200 -0.2900
v 0.3100 3.3400 -0.2900
v -0.3100 3.3400 -0.2900
v -0.3100 2.8200 0.3100
v 0.3100 2.8200 0.3100
v 0.3100 3.3400 0.3100
v -0.3100 3.3400 0.3100
v -0.2250 3.0814 -0.0100
v -0.0110 3.0380 0.0164
v 0.0183 3.1942 0.0354
v -0.1957 3.2376 0.0091
v -0.2783 3.0458 0.3646
v -0.0643 3.0024 0.3909
v -0.0350 3.1586 0.4100
v -0.2490 3.2020 0.3836
v 0.0021 3.0206 -0.0017
v 0.2174 3.0598 -0.0236
v 0.1895 3.2066 -0.0356
v -0.0259 3.1675 -0.0136
v 0.0305 3.0534 0.3356
v 0.2459 3.0925 0.3136
v 0.2179 3.2394 0.3017
v 0.0026 3.2002 0.3236
v -0.2500 2.8500 -0.2600
v 0.2500 2.8500 -0.2600
v 0.2500 3.1500 -0.2600
v -0.2500 3.1500 -0.2600
v -0.2500 2.8500 -0.0800
v 0.2500 2.8500 -0.0800
v 0.2500 3.1500 -0.0800
v -0.2500 3.1500 -0.0800
v -0.2588 2.8052 0.1600
v -0.1692 2.7962 0.1600
v -0.1412 3.0748 0.1600
v -0.2308 3.0838 0.1600
v -0.2588 2.8052 0.2600
v -0.1692 2.7962 0.2600
v -0.1412 3.0748 0.2600
v -0.2308 3.0838 0.2600
v 0.1692 2.7962 0.1600
v 0.2588 2.8052 0.1600
v 0.2308 3.0838 0.1600
v 0.1412 3.0748 0.1600
v 0.1692 2.7962 0.2600
v 0.2588 2.8052 0.2600
v 0.2308 3.0838 0.2600
v 0.1412 3.0748 0.2600
v -0.1200 2.6200 0.2400
v 0.1200 2.6200 0.2400
v 0.1200 2.7200 0.2400
v -0.1200 2.7200 0.2400
v -0.1200 2.6200 0.3200
v 0.1200 2.6200 0.3200
v 0.1200 2.7200 0.3200
v -0.1200 2.7200 0.3200
v -0.3290 1.9190 -0.5298
v -0.2107 1.9024 -0.5178
v -0.1372 2.4735 -0.4487
v -0.2555 2.4902 -0.4607
v -0.3428 1.9065 -0.4113
v -0.2245 1.8898 -0.3993
v -0.1510 2.4610 -0.3302
v -0.2693 2.4776 -0.3422
v 0.2196 1.8891 -0.4487
v 0.3378 1.9058 -0.4607
v 0.2506 2.4750 -0.5298
v 0.1324 2.4583 -0.5178
v 0.2294 1.9050 -0.3302
v 0.3476 1.9217 -0.3422
v 0.2604 2.4909 -0.4113
v 0.1422 2.4742 -0.3993
usemtl proto_dark
f 1 3 2
usemtl proto_dark
f 1 4 3
usemtl proto_dark
f 5 6 7
usemtl proto_dark
f 5 7 8
usemtl proto_dark
f 1 2 6
usemtl proto_dark
f 1 6 5
usemtl proto_dark
f 2 3 7
usemtl proto_dark
f 2 7 6
usemtl proto_dark
f 3 4 8
usemtl proto_dark
f 3 8 7
usemtl proto_dark
f 4 1 5
usemtl proto_dark
f 4 5 8
usemtl proto_dark
f 9 11 10
usemtl proto_dark
f 9 12 11
usemtl proto_dark
f 13 14 15
usemtl proto_dark
f 13 15 16
usemtl proto_dark
f 9 10 14
usemtl proto_dark
f 9 14 13
usemtl proto_dark
f 10 11 15
usemtl proto_dark
f 10 15 14
usemtl proto_dark
f 11 12 16
usemtl proto_dark
f 11 16 15
usemtl proto_dark
f 12 9 13
usemtl proto_dark
f 12 13 16
usemtl proto_glass
f 17 19 18
usemtl proto_glass
f 17 20 19
usemtl proto_glass
f 21 22 23
usemtl proto_glass
f 21 23 24
usemtl proto_glass
f 17 18 22
usemtl proto_glass
f 17 22 21
usemtl proto_glass
f 18 19 23
usemtl proto_glass
f 18 23 22
usemtl proto_glass
f 19 20 24
usemtl proto_glass
f 19 24 23
usemtl proto_glass
f 20 17 21
usemtl proto_glass
f 20 21 24
usemtl proto_dark
f 25 27 26
usemtl proto_dark
f 25 28 27
usemtl proto_dark
f 29 30 31
usemtl proto_dark
f 29 31 32
usemtl proto_dark
f 25 26 30
usemtl proto_dark
f 25 30 29
usemtl proto_dark
f 26 27 31
usemtl proto_dark
f 26 31 30
usemtl proto_dark
f 27 28 32
usemtl proto_dark
f 27 32 31
usemtl proto_dark
f 28 25 29
usemtl proto_dark
f 28 29 32
usemtl proto_armor
f 33 35 34
usemtl proto_armor
f 33 36 35
usemtl proto_armor
f 37 38 39
usemtl proto_armor
f 37 39 40
usemtl proto_armor
f 33 34 38
usemtl proto_armor
f 33 38 37
usemtl proto_armor
f 34 35 39
usemtl proto_armor
f 34 39 38
usemtl proto_armor
f 35 36 40
usemtl proto_armor
f 35 40 39
usemtl proto_armor
f 36 33 37
usemtl proto_armor
f 36 37 40
usemtl proto_armor
f 41 43 42
usemtl proto_armor
f 41 44 43
usemtl proto_armor
f 45 46 47
usemtl proto_armor
f 45 47 48
usemtl proto_armor
f 41 42 46
usemtl proto_armor
f 41 46 45
usemtl proto_armor
f 42 43 47
usemtl proto_armor
f 42 47 46
usemtl proto_armor
f 43 44 48
usemtl proto_armor
f 43 48 47
usemtl proto_armor
f 44 41 45
usemtl proto_armor
f 44 45 48
usemtl proto_accent
f 49 51 50
usemtl proto_accent
f 49 52 51
usemtl proto_accent
f 53 54 55
usemtl proto_accent
f 53 55 56
usemtl proto_accent
f 49 50 54
usemtl proto_accent
f 49 54 53
usemtl proto_accent
f 50 51 55
usemtl proto_accent
f 50 55 54
usemtl proto_accent
f 51 52 56
usemtl proto_accent
f 51 56 55
usemtl proto_accent
f 52 49 53
usemtl proto_accent
f 52 53 56
usemtl proto_dark
f 57 59 58
usemtl proto_dark
f 57 60 59
usemtl proto_dark
f 61 62 63
usemtl proto_dark
f 61 63 64
usemtl proto_dark
f 57 58 62
usemtl proto_dark
f 57 62 61
usemtl proto_dark
f 58 59 63
usemtl proto_dark
f 58 63 62
usemtl proto_dark
f 59 60 64
usemtl proto_dark
f 59 64 63
usemtl proto_dark
f 60 57 61
usemtl proto_dark
f 60 61 64
usemtl proto_dark
f 65 67 66
usemtl proto_dark
f 65 68 67
usemtl proto_dark
f 69 70 71
usemtl proto_dark
f 69 71 72
usemtl proto_dark
f 65 66 70
usemtl proto_dark
f 65 70 69
usemtl proto_dark
f 66 67 71
usemtl proto_dark
f 66 71 70
usemtl proto_dark
f 67 68 72
usemtl proto_dark
f 67 72 71
usemtl proto_dark
f 68 65 69
usemtl proto_dark
f 68 69 72
usemtl proto_dark
f 73 75 74
usemtl proto_dark
f 73 76 75
usemtl proto_dark
f 77 78 79
usemtl proto_dark
f 77 79 80
usemtl proto_dark
f 73 74 78
usemtl proto_dark
f 73 78 77
usemtl proto_dark
f 74 75 79
usemtl proto_dark
f 74 79 78
usemtl proto_dark
f 75 76 80
usemtl proto_dark
f 75 80 79
usemtl proto_dark
f 76 73 77
usemtl proto_dark
f 76 77 80
usemtl proto_dark
f 81 83 82
usemtl proto_dark
f 81 84 83
usemtl proto_dark
f 85 86 87
usemtl proto_dark
f 85 87 88
usemtl proto_dark
f 81 82 86
usemtl proto_dark
f 81 86 85
usemtl proto_dark
f 82 83 87
usemtl proto_dark
f 82 87 86
usemtl proto_dark
f 83 84 88
usemtl proto_dark
f 83 88 87
usemtl proto_dark
f 84 81 85
usemtl proto_dark
f 84 85 88
usemtl proto_dark
f 89 91 90
usemtl proto_dark
f 89 92 91
usemtl proto_dark
f 93 94 95
usemtl proto_dark
f 93 95 96
usemtl proto_dark
f 89 90 94
usemtl proto_dark
f 89 94 93
usemtl proto_dark
f 90 91 95
usemtl proto_dark
f 90 95 94
usemtl proto_dark
f 91 92 96
usemtl proto_dark
f 91 96 95
usemtl proto_dark
f 92 89 93
usemtl proto_dark
f 92 93 96
usemtl proto_armor
f 97 99 98
usemtl proto_armor
f 97 100 99
usemtl proto_armor
f 101 102 103
usemtl proto_armor
f 101 103 104
usemtl proto_armor
f 97 98 102
usemtl proto_armor
f 97 102 101
usemtl proto_armor
f 98 99 103
usemtl proto_armor
f 98 103 102
usemtl proto_armor
f 99 100 104
usemtl proto_armor
f 99 104 103
usemtl proto_armor
f 100 97 101
usemtl proto_armor
f 100 101 104
usemtl proto_armor
f 105 107 106
usemtl proto_armor
f 105 108 107
usemtl proto_armor
f 109 110 111
usemtl proto_armor
f 109 111 112
usemtl proto_armor
f 105 106 110
usemtl proto_armor
f 105 110 109
usemtl proto_armor
f 106 107 111
usemtl proto_armor
f 106 111 110
usemtl proto_armor
f 107 108 112
usemtl proto_armor
f 107 112 111
usemtl proto_armor
f 108 105 109
usemtl proto_armor
f 108 109 112
usemtl proto_dark
f 113 115 114
usemtl proto_dark
f 113 116 115
usemtl proto_dark
f 117 118 119
usemtl proto_dark
f 117 119 120
usemtl proto_dark
f 113 114 118
usemtl proto_dark
f 113 118 117
usemtl proto_dark
f 114 115 119
usemtl proto_dark
f 114 119 118
usemtl proto_dark
f 115 116 120
usemtl proto_dark
f 115 120 119
usemtl proto_dark
f 116 113 117
usemtl proto_dark
f 116 117 120
usemtl proto_dark
f 121 123 122
usemtl proto_dark
f 121 124 123
usemtl proto_dark
f 125 126 127
usemtl proto_dark
f 125 127 128
usemtl proto_dark
f 121 122 126
usemtl proto_dark
f 121 126 125
usemtl proto_dark
f 122 123 127
usemtl proto_dark
f 122 127 126
usemtl proto_dark
f 123 124 128
usemtl proto_dark
f 123 128 127
usemtl proto_dark
f 124 121 125
usemtl proto_dark
f 124 125 128
usemtl proto_dark
f 129 131 130
usemtl proto_dark
f 129 132 131
usemtl proto_dark
f 133 134 135
usemtl proto_dark
f 133 135 136
usemtl proto_dark
f 129 130 134
usemtl proto_dark
f 129 134 133
usemtl proto_dark
f 130 131 135
usemtl proto_dark
f 130 135 134
usemtl proto_dark
f 131 132 136
usemtl proto_dark
f 131 136 135
usemtl proto_dark
f 132 129 133
usemtl proto_dark
f 132 133 136
usemtl proto_dark
f 137 139 138
usemtl proto_dark
f 137 140 139
usemtl proto_dark
f 141 142 143
usemtl proto_dark
f 141 143 144
usemtl proto_dark
f 137 138 142
usemtl proto_dark
f 137 142 141
usemtl proto_dark
f 138 139 143
usemtl proto_dark
f 138 143 142
usemtl proto_dark
f 139 140 144
usemtl proto_dark
f 139 144 143
usemtl proto_dark
f 140 137 141
usemtl proto_dark
f 140 141 144
usemtl proto_armor
f 145 147 146
usemtl proto_armor
f 145 148 147
usemtl proto_armor
f 149 150 151
usemtl proto_armor
f 149 151 152
usemtl proto_armor
f 145 146 150
usemtl proto_armor
f 145 150 149
usemtl proto_armor
f 146 147 151
usemtl proto_armor
f 146 151 150
usemtl proto_armor
f 147 148 152
usemtl proto_armor
f 147 152 151
usemtl proto_armor
f 148 145 149
usemtl proto_armor
f 148 149 152
usemtl proto_armor
f 153 155 154
usemtl proto_armor
f 153 156 155
usemtl proto_armor
f 157 158 159
usemtl proto_armor
f 157 159 160
usemtl proto_armor
f 153 154 158
usemtl proto_armor
f 153 158 157
usemtl proto_armor
f 154 155 159
usemtl proto_armor
f 154 159 158
usemtl proto_armor
f 155 156 160
usemtl proto_armor
f 155 160 159
usemtl proto_armor
f 156 153 157
usemtl proto_armor
f 156 157 160
usemtl proto_accent
f 161 163 162
usemtl proto_accent
f 161 164 163
usemtl proto_accent
f 165 166 167
usemtl proto_accent
f 165 167 168
usemtl proto_accent
f 161 162 166
usemtl proto_accent
f 161 166 165
usemtl proto_accent
f 162 163 167
usemtl proto_accent
f 162 167 166
usemtl proto_accent
f 163 164 168
usemtl proto_accent
f 163 168 167
usemtl proto_accent
f 164 161 165
usemtl proto_accent
f 164 165 168
usemtl proto_accent
f 169 171 170
usemtl proto_accent
f 169 172 171
usemtl proto_accent
f 173 174 175
usemtl proto_accent
f 173 175 176
usemtl proto_accent
f 169 170 174
usemtl proto_accent
f 169 174 173
usemtl proto_accent
f 170 171 175
usemtl proto_accent
f 170 175 174
usemtl proto_accent
f 171 172 176
usemtl proto_accent
f 171 176 175
usemtl proto_accent
f 172 169 173
usemtl proto_accent
f 172 173 176
usemtl proto_dark
f 177 179 178
usemtl proto_dark
f 177 180 179
usemtl proto_dark
f 181 182 183
usemtl proto_dark
f 181 183 184
usemtl proto_dark
f 177 178 182
usemtl proto_dark
f 177 182 181
usemtl proto_dark
f 178 179 183
usemtl proto_dark
f 178 183 182
usemtl proto_dark
f 179 180 184
usemtl proto_dark
f 179 184 183
usemtl proto_dark
f 180 177 181
usemtl proto_dark
f 180 181 184
usemtl proto_dark
f 185 187 186
usemtl proto_dark
f 185 188 187
usemtl proto_dark
f 189 190 191
usemtl proto_dark
f 189 191 192
usemtl proto_dark
f 185 186 190
usemtl proto_dark
f 185 190 189
usemtl proto_dark
f 186 187 191
usemtl proto_dark
f 186 191 190
usemtl proto_dark
f 187 188 192
usemtl proto_dark
f 187 192 191
usemtl proto_dark
f 188 185 189
usemtl proto_dark
f 188 189 192
usemtl proto_armor
f 193 195 194
usemtl proto_armor
f 193 196 195
usemtl proto_armor
f 197 198 199
usemtl proto_armor
f 197 199 200
usemtl proto_armor
f 193 194 198
usemtl proto_armor
f 193 198 197
usemtl proto_armor
f 194 195 199
usemtl proto_armor
f 194 199 198
usemtl proto_armor
f 195 196 200
usemtl proto_armor
f 195 200 199
usemtl proto_armor
f 196 193 197
usemtl proto_armor
f 196 197 200
usemtl proto_armor
f 201 203 202
usemtl proto_armor
f 201 204 203
usemtl proto_armor
f 205 206 207
usemtl proto_armor
f 205 207 208
usemtl proto_armor
f 201 202 206
usemtl proto_armor
f 201 206 205
usemtl proto_armor
f 202 203 207
usemtl proto_armor
f 202 207 206
usemtl proto_armor
f 203 204 208
usemtl proto_armor
f 203 208 207
usemtl proto_armor
f 204 201 205
usemtl proto_armor
f 204 205 208
usemtl proto_dark
f 209 211 210
usemtl proto_dark
f 209 212 211
usemtl proto_dark
f 213 214 215
usemtl proto_dark
f 213 215 216
usemtl proto_dark
f 209 210 214
usemtl proto_dark
f 209 214 213
usemtl proto_dark
f 210 211 215
usemtl proto_dark
f 210 215 214
usemtl proto_dark
f 211 212 216
usemtl proto_dark
f 211 216 215
usemtl proto_dark
f 212 209 213
usemtl proto_dark
f 212 213 216
usemtl proto_dark
f 217 219 218
usemtl proto_dark
f 217 220 219
usemtl proto_dark
f 221 222 223
usemtl proto_dark
f 221 223 224
usemtl proto_dark
f 217 218 222
usemtl proto_dark
f 217 222 221
usemtl proto_dark
f 218 219 223
usemtl proto_dark
f 218 223 222
usemtl proto_dark
f 219 220 224
usemtl proto_dark
f 219 224 223
usemtl proto_dark
f 220 217 221
usemtl proto_dark
f 220 221 224
usemtl proto_armor
f 225 227 226
usemtl proto_armor
f 225 228 227
usemtl proto_armor
f 229 230 231
usemtl proto_armor
f 229 231 232
usemtl proto_armor
f 225 226 230
usemtl proto_armor
f 225 230 229
usemtl proto_armor
f 226 227 231
usemtl proto_armor
f 226 231 230
usemtl proto_armor
f 227 228 232
usemtl proto_armor
f 227 232 231
usemtl proto_armor
f 228 225 229
usemtl proto_armor
f 228 229 232
usemtl proto_armor
f 233 235 234
usemtl proto_armor
f 233 236 235
usemtl proto_armor
f 237 238 239
usemtl proto_armor
f 237 239 240
usemtl proto_armor
f 233 234 238
usemtl proto_armor
f 233 238 237
usemtl proto_armor
f 234 235 239
usemtl proto_armor
f 234 239 238
usemtl proto_armor
f 235 236 240
usemtl proto_armor
f 235 240 239
usemtl proto_armor
f 236 233 237
usemtl proto_armor
f 236 237 240
usemtl proto_armor
f 241 243 242
usemtl proto_armor
f 241 244 243
usemtl proto_armor
f 245 246 247
usemtl proto_armor
f 245 247 248
usemtl proto_armor
f 241 242 246
usemtl proto_armor
f 241 246 245
usemtl proto_armor
f 242 243 247
usemtl proto_armor
f 242 247 246
usemtl proto_armor
f 243 244 248
usemtl proto_armor
f 243 248 247
usemtl proto_armor
f 244 241 245
usemtl proto_armor
f 244 245 248
usemtl proto_armor
f 249 251 250
usemtl proto_armor
f 249 252 251
usemtl proto_armor
f 253 254 255
usemtl proto_armor
f 253 255 256
usemtl proto_armor
f 249 250 254
usemtl proto_armor
f 249 254 253
usemtl proto_armor
f 250 251 255
usemtl proto_armor
f 250 255 254
usemtl proto_armor
f 251 252 256
usemtl proto_armor
f 251 256 255
usemtl proto_armor
f 252 249 253
usemtl proto_armor
f 252 253 256
usemtl proto_dark
f 257 259 258
usemtl proto_dark
f 257 260 259
usemtl proto_dark
f 261 262 263
usemtl proto_dark
f 261 263 264
usemtl proto_dark
f 257 258 262
usemtl proto_dark
f 257 262 261
usemtl proto_dark
f 258 259 263
usemtl proto_dark
f 258 263 262
usemtl proto_dark
f 259 260 264
usemtl proto_dark
f 259 264 263
usemtl proto_dark
f 260 257 261
usemtl proto_dark
f 260 261 264
usemtl proto_dark
f 265 267 266
usemtl proto_dark
f 265 268 267
usemtl proto_dark
f 269 270 271
usemtl proto_dark
f 269 271 272
usemtl proto_dark
f 265 266 270
usemtl proto_dark
f 265 270 269
usemtl proto_dark
f 266 267 271
usemtl proto_dark
f 266 271 270
usemtl proto_dark
f 267 268 272
usemtl proto_dark
f 267 272 271
usemtl proto_dark
f 268 265 269
usemtl proto_dark
f 268 269 272
usemtl proto_accent
f 273 275 274
usemtl proto_accent
f 273 276 275
usemtl proto_accent
f 277 278 279
usemtl proto_accent
f 277 279 280
usemtl proto_accent
f 273 274 278
usemtl proto_accent
f 273 278 277
usemtl proto_accent
f 274 275 279
usemtl proto_accent
f 274 279 278
usemtl proto_accent
f 275 276 280
usemtl proto_accent
f 275 280 279
usemtl proto_accent
f 276 273 277
usemtl proto_accent
f 276 277 280
usemtl proto_accent
f 281 283 282
usemtl proto_accent
f 281 284 283
usemtl proto_accent
f 285 286 287
usemtl proto_accent
f 285 287 288
usemtl proto_accent
f 281 282 286
usemtl proto_accent
f 281 286 285
usemtl proto_accent
f 282 283 287
usemtl proto_accent
f 282 287 286
usemtl proto_accent
f 283 284 288
usemtl proto_accent
f 283 288 287
usemtl proto_accent
f 284 281 285
usemtl proto_accent
f 284 285 288
usemtl proto_skin
f 289 291 290
usemtl proto_skin
f 289 292 291
usemtl proto_skin
f 293 294 295
usemtl proto_skin
f 293 295 296
usemtl proto_skin
f 289 290 294
usemtl proto_skin
f 289 294 293
usemtl proto_skin
f 290 291 295
usemtl proto_skin
f 290 295 294
usemtl proto_skin
f 291 292 296
usemtl proto_skin
f 291 296 295
usemtl proto_skin
f 292 289 293
usemtl proto_skin
f 292 293 296
usemtl proto_skin
f 297 299 298
usemtl proto_skin
f 297 300 299
usemtl proto_skin
f 301 302 303
usemtl proto_skin
f 301 303 304
usemtl proto_skin
f 297 298 302
usemtl proto_skin
f 297 302 301
usemtl proto_skin
f 298 299 303
usemtl proto_skin
f 298 303 302
usemtl proto_skin
f 299 300 304
usemtl proto_skin
f 299 304 303
usemtl proto_skin
f 300 297 301
usemtl proto_skin
f 300 301 304
usemtl proto_skin
f 305 307 306
usemtl proto_skin
f 305 308 307
usemtl proto_skin
f 309 310 311
usemtl proto_skin
f 309 311 312
usemtl proto_skin
f 305 306 310
usemtl proto_skin
f 305 310 309
usemtl proto_skin
f 306 307 311
usemtl proto_skin
f 306 311 310
usemtl proto_skin
f 307 308 312
usemtl proto_skin
f 307 312 311
usemtl proto_skin
f 308 305 309
usemtl proto_skin
f 308 309 312
usemtl proto_skin
f 313 315 314
usemtl proto_skin
f 313 316 315
usemtl proto_skin
f 317 318 319
usemtl proto_skin
f 317 319 320
usemtl proto_skin
f 313 314 318
usemtl proto_skin
f 313 318 317
usemtl proto_skin
f 314 315 319
usemtl proto_skin
f 314 319 318
usemtl proto_skin
f 315 316 320
usemtl proto_skin
f 315 320 319
usemtl proto_skin
f 316 313 317
usemtl proto_skin
f 316 317 320
usemtl proto_skin
f 321 323 322
usemtl proto_skin
f 321 324 323
usemtl proto_skin
f 325 326 327
usemtl proto_skin
f 325 327 328
usemtl proto_skin
f 321 322 326
usemtl proto_skin
f 321 326 325
usemtl proto_skin
f 322 323 327
usemtl proto_skin
f 322 327 326
usemtl proto_skin
f 323 324 328
usemtl proto_skin
f 323 328 327
usemtl proto_skin
f 324 321 325
usemtl proto_skin
f 324 325 328
usemtl proto_hair
f 329 331 330
usemtl proto_hair
f 329 332 331
usemtl proto_hair
f 333 334 335
usemtl proto_hair
f 333 335 336
usemtl proto_hair
f 329 330 334
usemtl proto_hair
f 329 334 333
usemtl proto_hair
f 330 331 335
usemtl proto_hair
f 330 335 334
usemtl proto_hair
f 331 332 336
usemtl proto_hair
f 331 336 335
usemtl proto_hair
f 332 329 333
usemtl proto_hair
f 332 333 336
usemtl proto_hair
f 337 339 338
usemtl proto_hair
f 337 340 339
usemtl proto_hair
f 341 342 343
usemtl proto_hair
f 341 343 344
usemtl proto_hair
f 337 338 342
usemtl proto_hair
f 337 342 341
usemtl proto_hair
f 338 339 343
usemtl proto_hair
f 338 343 342
usemtl proto_hair
f 339 340 344
usemtl proto_hair
f 339 344 343
usemtl proto_hair
f 340 337 341
usemtl proto_hair
f 340 341 344
usemtl proto_hair
f 345 347 346
usemtl proto_hair
f 345 348 347
usemtl proto_hair
f 349 350 351
usemtl proto_hair
f 349 351 352
usemtl proto_hair
f 345 346 350
usemtl proto_hair
f 345 350 349
usemtl proto_hair
f 346 347 351
usemtl proto_hair
f 346 351 350
usemtl proto_hair
f 347 348 352
usemtl proto_hair
f 347 352 351
usemtl proto_hair
f 348 345 349
usemtl proto_hair
f 348 349 352
usemtl proto_hair
f 353 355 354
usemtl proto_hair
f 353 356 355
usemtl proto_hair
f 357 358 359
usemtl proto_hair
f 357 359 360
usemtl proto_hair
f 353 354 358
usemtl proto_hair
f 353 358 357
usemtl proto_hair
f 354 355 359
usemtl proto_hair
f 354 359 358
usemtl proto_hair
f 355 356 360
usemtl proto_hair
f 355 360 359
usemtl proto_hair
f 356 353 357
usemtl proto_hair
f 356 357 360
usemtl proto_armor
f 361 363 362
usemtl proto_armor
f 361 364 363
usemtl proto_armor
f 365 366 367
usemtl proto_armor
f 365 367 368
usemtl proto_armor
f 361 362 366
usemtl proto_armor
f 361 366 365
usemtl proto_armor
f 362 363 367
usemtl proto_armor
f 362 367 366
usemtl proto_armor
f 363 364 368
usemtl proto_armor
f 363 368 367
usemtl proto_armor
f 364 361 365
usemtl proto_armor
f 364 365 368
usemtl proto_armor
f 369 371 370
usemtl proto_armor
f 369 372 371
usemtl proto_armor
f 373 374 375
usemtl proto_armor
f 373 375 376
usemtl proto_armor
f 369 370 374
usemtl proto_armor
f 369 374 373
usemtl proto_armor
f 370 371 375
usemtl proto_armor
f 370 375 374
usemtl proto_armor
f 371 372 376
usemtl proto_armor
f 371 376 375
usemtl proto_armor
f 372 369 373
usemtl proto_armor
f 372 373 376
usemtl proto_accent
f 377 379 378
usemtl proto_accent
f 377 380 379
usemtl proto_accent
f 381 382 383
usemtl proto_accent
f 381 383 384
usemtl proto_accent
f 377 378 382
usemtl proto_accent
f 377 382 381
usemtl proto_accent
f 378 379 383
usemtl proto_accent
f 378 383 382
usemtl proto_accent
f 379 380 384
usemtl proto_accent
f 379 384 383
usemtl proto_accent
f 380 377 381
usemtl proto_accent
f 380 381 384
usemtl proto_dark
f 385 387 386
usemtl proto_dark
f 385 388 387
usemtl proto_dark
f 389 390 391
usemtl proto_dark
f 389 391 392
usemtl proto_dark
f 385 386 390
usemtl proto_dark
f 385 390 389
usemtl proto_dark
f 386 387 391
usemtl proto_dark
f 386 391 390
usemtl proto_dark
f 387 388 392
usemtl proto_dark
f 387 392 391
usemtl proto_dark
f 388 385 389
usemtl proto_dark
f 388 389 392
usemtl proto_dark
f 393 395 394
usemtl proto_dark
f 393 396 395
usemtl proto_dark
f 397 398 399
usemtl proto_dark
f 397 399 400
usemtl proto_dark
f 393 394 398
usemtl proto_dark
f 393 398 397
usemtl proto_dark
f 394 395 399
usemtl proto_dark
f 394 399 398
usemtl proto_dark
f 395 396 400
usemtl proto_dark
f 395 400 399
usemtl proto_dark
f 396 393 397
usemtl proto_dark
f 396 397 400
