solid Warframe1999_Protoframe_LowPoly_v2
facet normal 0.0000 0.0000 -1.0000
outer loop
vertex -0.3100 1.4900 -0.2550
vertex 0.3100 2.1900 -0.2550
vertex 0.3100 1.4900 -0.2550
endloop
endfacet
facet normal 0.0000 0.0000 -1.0000
outer loop
vertex -0.3100 1.4900 -0.2550
vertex -0.3100 2.1900 -0.2550
vertex 0.3100 2.1900 -0.2550
endloop
endfacet
facet normal 0.0000 0.0000 1.0000
outer loop
vertex -0.3100 1.4900 0.2950
vertex 0.3100 1.4900 0.2950
vertex 0.3100 2.1900 0.2950
endloop
endfacet
facet normal 0.0000 0.0000 1.0000
outer loop
vertex -0.3100 1.4900 0.2950
vertex 0.3100 2.1900 0.2950
vertex -0.3100 2.1900 0.2950
endloop
endfacet
facet normal 0.0000 -1.0000 0.0000
outer loop
vertex -0.3100 1.4900 -0.2550
vertex 0.3100 1.4900 -0.2550
vertex 0.3100 1.4900 0.2950
endloop
endfacet
facet normal 0.0000 -1.0000 0.0000
outer loop
vertex -0.3100 1.4900 -0.2550
vertex 0.3100 1.4900 0.2950
vertex -0.3100 1.4900 0.2950
endloop
endfacet
facet normal 1.0000 0.0000 0.0000
outer loop
vertex 0.3100 1.4900 -0.2550
vertex 0.3100 2.1900 -0.2550
vertex 0.3100 2.1900 0.2950
endloop
endfacet
facet normal 1.0000 0.0000 0.0000
outer loop
vertex 0.3100 1.4900 -0.2550
vertex 0.3100 2.1900 0.2950
vertex 0.3100 1.4900 0.2950
endloop
endfacet
facet normal 0.0000 1.0000 0.0000
outer loop
vertex 0.3100 2.1900 -0.2550
vertex -0.3100 2.1900 -0.2550
vertex -0.3100 2.1900 0.2950
endloop
endfacet
facet normal 0.0000 1.0000 0.0000
outer loop
vertex 0.3100 2.1900 -0.2550
vertex -0.3100 2.1900 0.2950
vertex 0.3100 2.1900 0.2950
endloop
endfacet
facet normal -1.0000 0.0000 0.0000
outer loop
vertex -0.3100 2.1900 -0.2550
vertex -0.3100 1.4900 -0.2550
vertex -0.3100 1.4900 0.2950
endloop
endfacet
facet normal -1.0000 0.0000 0.0000
outer loop
vertex -0.3100 2.1900 -0.2550
vertex -0.3100 1.4900 0.2950
vertex -0.3100 2.1900 0.2950
endloop
endfacet
facet normal 0.0000 0.0400 -0.9992
outer loop
vertex -0.1500 2.0385 -0.2346
vertex 0.1500 2.2783 -0.2250
vertex 0.1500 2.0385 -0.2346
endloop
endfacet
facet normal 0.0000 0.0400 -0.9992
outer loop
vertex -0.1500 2.0385 -0.2346
vertex -0.1500 2.2783 -0.2250
vertex 0.1500 2.2783 -0.2250
endloop
endfacet
facet normal 0.0000 -0.0400 0.9992
outer loop
vertex -0.1500 2.0217 0.1850
vertex 0.1500 2.0217 0.1850
vertex 0.1500 2.2615 0.1946
endloop
endfacet
facet normal 0.0000 -0.0400 0.9992
outer loop
vertex -0.1500 2.0217 0.1850
vertex 0.1500 2.2615 0.1946
vertex -0.1500 2.2615 0.1946
endloop
endfacet
facet normal 0.0000 -0.9992 -0.0400
outer loop
vertex -0.1500 2.0385 -0.2346
vertex 0.1500 2.0385 -0.2346
vertex 0.1500 2.0217 0.1850
endloop
endfacet
facet normal 0.0000 -0.9992 -0.0400
outer loop
vertex -0.1500 2.0385 -0.2346
vertex 0.1500 2.0217 0.1850
vertex -0.1500 2.0217 0.1850
endloop
endfacet
facet normal 1.0000 0.0000 0.0000
outer loop
vertex 0.1500 2.0385 -0.2346
vertex 0.1500 2.2783 -0.2250
vertex 0.1500 2.2615 0.1946
endloop
endfacet
facet normal 1.0000 0.0000 0.0000
outer loop
vertex 0.1500 2.0385 -0.2346
vertex 0.1500 2.2615 0.1946
vertex 0.1500 2.0217 0.1850
endloop
endfacet
facet normal 0.0000 0.9992 0.0400
outer loop
vertex 0.1500 2.2783 -0.2250
vertex -0.1500 2.2783 -0.2250
vertex -0.1500 2.2615 0.1946
endloop
endfacet
facet normal 0.0000 0.9992 0.0400
outer loop
vertex 0.1500 2.2783 -0.2250
vertex -0.1500 2.2615 0.1946
vertex 0.1500 2.2615 0.1946
endloop
endfacet
facet normal -1.0000 0.0000 0.0000
outer loop
vertex -0.1500 2.2783 -0.2250
vertex -0.1500 2.0385 -0.2346
vertex -0.1500 2.0217 0.1850
endloop
endfacet
facet normal -1.0000 0.0000 0.0000
outer loop
vertex -0.1500 2.2783 -0.2250
vertex -0.1500 2.0217 0.1850
vertex -0.1500 2.2615 0.1946
endloop
endfacet
facet normal 0.0000 0.0000 -1.0000
outer loop
vertex -0.1700 1.7700 0.2800
vertex 0.1700 1.9100 0.2800
vertex 0.1700 1.7700 0.2800
endloop
endfacet
facet normal 0.0000 0.0000 -1.0000
outer loop
vertex -0.1700 1.7700 0.2800
vertex -0.1700 1.9100 0.2800
vertex 0.1700 1.9100 0.2800
endloop
endfacet
facet normal 0.0000 0.0000 1.0000
outer loop
vertex -0.1700 1.7700 0.3400
vertex 0.1700 1.7700 0.3400
vertex 0.1700 1.9100 0.3400
endloop
endfacet
facet normal 0.0000 0.0000 1.0000
outer loop
vertex -0.1700 1.7700 0.3400
vertex 0.1700 1.9100 0.3400
vertex -0.1700 1.9100 0.3400
endloop
endfacet
facet normal 0.0000 -1.0000 0.0000
outer loop
vertex -0.1700 1.7700 0.2800
vertex 0.1700 1.7700 0.2800
vertex 0.1700 1.7700 0.3400
endloop
endfacet
facet normal 0.0000 -1.0000 0.0000
outer loop
vertex -0.1700 1.7700 0.2800
vertex 0.1700 1.7700 0.3400
vertex -0.1700 1.7700 0.3400
endloop
endfacet
facet normal 1.0000 0.0000 0.0000
outer loop
vertex 0.1700 1.7700 0.2800
vertex 0.1700 1.9100 0.2800
vertex 0.1700 1.9100 0.3400
endloop
endfacet
facet normal 1.0000 0.0000 0.0000
outer loop
vertex 0.1700 1.7700 0.2800
vertex 0.1700 1.9100 0.3400
vertex 0.1700 1.7700 0.3400
endloop
endfacet
facet normal 0.0000 1.0000 0.0000
outer loop
vertex 0.1700 1.9100 0.2800
vertex -0.1700 1.9100 0.2800
vertex -0.1700 1.9100 0.3400
endloop
endfacet
facet normal 0.0000 1.0000 0.0000
outer loop
vertex 0.1700 1.9100 0.2800
vertex -0.1700 1.9100 0.3400
vertex 0.1700 1.9100 0.3400
endloop
endfacet
facet normal -1.0000 0.0000 0.0000
outer loop
vertex -0.1700 1.9100 0.2800
vertex -0.1700 1.7700 0.2800
vertex -0.1700 1.7700 0.3400
endloop
endfacet
facet normal -1.0000 0.0000 0.0000
outer loop
vertex -0.1700 1.9100 0.2800
vertex -0.1700 1.7700 0.3400
vertex -0.1700 1.9100 0.3400
endloop
endfacet
facet normal 0.0000 0.0000 -1.0000
outer loop
vertex -0.1900 1.4300 -0.1700
vertex 0.1900 1.6100 -0.1700
vertex 0.1900 1.4300 -0.1700
endloop
endfacet
facet normal 0.0000 0.0000 -1.0000
outer loop
vertex -0.1900 1.4300 -0.1700
vertex -0.1900 1.6100 -0.1700
vertex 0.1900 1.6100 -0.1700
endloop
endfacet
facet normal 0.0000 0.0000 1.0000
outer loop
vertex -0.1900 1.4300 0.1700
vertex 0.1900 1.4300 0.1700
vertex 0.1900 1.6100 0.1700
endloop
endfacet
facet normal 0.0000 0.0000 1.0000
outer loop
vertex -0.1900 1.4300 0.1700
vertex 0.1900 1.6100 0.1700
vertex -0.1900 1.6100 0.1700
endloop
endfacet
facet normal 0.0000 -1.0000 0.0000
outer loop
vertex -0.1900 1.4300 -0.1700
vertex 0.1900 1.4300 -0.1700
vertex 0.1900 1.4300 0.1700
endloop
endfacet
facet normal 0.0000 -1.0000 0.0000
outer loop
vertex -0.1900 1.4300 -0.1700
vertex 0.1900 1.4300 0.1700
vertex -0.1900 1.4300 0.1700
endloop
endfacet
facet normal 1.0000 0.0000 0.0000
outer loop
vertex 0.1900 1.4300 -0.1700
vertex 0.1900 1.6100 -0.1700
vertex 0.1900 1.6100 0.1700
endloop
endfacet
facet normal 1.0000 0.0000 0.0000
outer loop
vertex 0.1900 1.4300 -0.1700
vertex 0.1900 1.6100 0.1700
vertex 0.1900 1.4300 0.1700
endloop
endfacet
facet normal 0.0000 1.0000 0.0000
outer loop
vertex 0.1900 1.6100 -0.1700
vertex -0.1900 1.6100 -0.1700
vertex -0.1900 1.6100 0.1700
endloop
endfacet
facet normal 0.0000 1.0000 0.0000
outer loop
vertex 0.1900 1.6100 -0.1700
vertex -0.1900 1.6100 0.1700
vertex 0.1900 1.6100 0.1700
endloop
endfacet
facet normal -1.0000 0.0000 0.0000
outer loop
vertex -0.1900 1.6100 -0.1700
vertex -0.1900 1.4300 -0.1700
vertex -0.1900 1.4300 0.1700
endloop
endfacet
facet normal -1.0000 0.0000 0.0000
outer loop
vertex -0.1900 1.6100 -0.1700
vertex -0.1900 1.4300 0.1700
vertex -0.1900 1.6100 0.1700
endloop
endfacet
facet normal 0.0000 0.0000 -1.0000
outer loop
vertex -0.4750 0.8000 -0.2800
vertex 0.4750 1.6400 -0.2800
vertex 0.4750 0.8000 -0.2800
endloop
endfacet
facet normal 0.0000 0.0000 -1.0000
outer loop
vertex -0.4750 0.8000 -0.2800
vertex -0.4750 1.6400 -0.2800
vertex 0.4750 1.6400 -0.2800
endloop
endfacet
facet normal 0.0000 0.0000 1.0000
outer loop
vertex -0.4750 0.8000 0.2800
vertex 0.4750 0.8000 0.2800
vertex 0.4750 1.6400 0.2800
endloop
endfacet
facet normal 0.0000 0.0000 1.0000
outer loop
vertex -0.4750 0.8000 0.2800
vertex 0.4750 1.6400 0.2800
vertex -0.4750 1.6400 0.2800
endloop
endfacet
facet normal 0.0000 -1.0000 0.0000
outer loop
vertex -0.4750 0.8000 -0.2800
vertex 0.4750 0.8000 -0.2800
vertex 0.4750 0.8000 0.2800
endloop
endfacet
facet normal 0.0000 -1.0000 0.0000
outer loop
vertex -0.4750 0.8000 -0.2800
vertex 0.4750 0.8000 0.2800
vertex -0.4750 0.8000 0.2800
endloop
endfacet
facet normal 1.0000 0.0000 0.0000
outer loop
vertex 0.4750 0.8000 -0.2800
vertex 0.4750 1.6400 -0.2800
vertex 0.4750 1.6400 0.2800
endloop
endfacet
facet normal 1.0000 0.0000 0.0000
outer loop
vertex 0.4750 0.8000 -0.2800
vertex 0.4750 1.6400 0.2800
vertex 0.4750 0.8000 0.2800
endloop
endfacet
facet normal 0.0000 1.0000 0.0000
outer loop
vertex 0.4750 1.6400 -0.2800
vertex -0.4750 1.6400 -0.2800
vertex -0.4750 1.6400 0.2800
endloop
endfacet
facet normal 0.0000 1.0000 0.0000
outer loop
vertex 0.4750 1.6400 -0.2800
vertex -0.4750 1.6400 0.2800
vertex 0.4750 1.6400 0.2800
endloop
endfacet
facet normal -1.0000 0.0000 0.0000
outer loop
vertex -0.4750 1.6400 -0.2800
vertex -0.4750 0.8000 -0.2800
vertex -0.4750 0.8000 0.2800
endloop
endfacet
facet normal -1.0000 0.0000 0.0000
outer loop
vertex -0.4750 1.6400 -0.2800
vertex -0.4750 0.8000 0.2800
vertex -0.4750 1.6400 0.2800
endloop
endfacet
facet normal 0.0000 0.0000 -1.0000
outer loop
vertex -0.3600 1.1300 0.2900
vertex 0.3600 1.5900 0.2900
vertex 0.3600 1.1300 0.2900
endloop
endfacet
facet normal 0.0000 0.0000 -1.0000
outer loop
vertex -0.3600 1.1300 0.2900
vertex -0.3600 1.5900 0.2900
vertex 0.3600 1.5900 0.2900
endloop
endfacet
facet normal 0.0000 0.0000 1.0000
outer loop
vertex -0.3600 1.1300 0.3900
vertex 0.3600 1.1300 0.3900
vertex 0.3600 1.5900 0.3900
endloop
endfacet
facet normal 0.0000 0.0000 1.0000
outer loop
vertex -0.3600 1.1300 0.3900
vertex 0.3600 1.5900 0.3900
vertex -0.3600 1.5900 0.3900
endloop
endfacet
facet normal 0.0000 -1.0000 0.0000
outer loop
vertex -0.3600 1.1300 0.2900
vertex 0.3600 1.1300 0.2900
vertex 0.3600 1.1300 0.3900
endloop
endfacet
facet normal 0.0000 -1.0000 0.0000
outer loop
vertex -0.3600 1.1300 0.2900
vertex 0.3600 1.1300 0.3900
vertex -0.3600 1.1300 0.3900
endloop
endfacet
facet normal 1.0000 0.0000 0.0000
outer loop
vertex 0.3600 1.1300 0.2900
vertex 0.3600 1.5900 0.2900
vertex 0.3600 1.5900 0.3900
endloop
endfacet
facet normal 1.0000 0.0000 0.0000
outer loop
vertex 0.3600 1.1300 0.2900
vertex 0.3600 1.5900 0.3900
vertex 0.3600 1.1300 0.3900
endloop
endfacet
facet normal 0.0000 1.0000 0.0000
outer loop
vertex 0.3600 1.5900 0.2900
vertex -0.3600 1.5900 0.2900
vertex -0.3600 1.5900 0.3900
endloop
endfacet
facet normal 0.0000 1.0000 0.0000
outer loop
vertex 0.3600 1.5900 0.2900
vertex -0.3600 1.5900 0.3900
vertex 0.3600 1.5900 0.3900
endloop
endfacet
facet normal -1.0000 0.0000 0.0000
outer loop
vertex -0.3600 1.5900 0.2900
vertex -0.3600 1.1300 0.2900
vertex -0.3600 1.1300 0.3900
endloop
endfacet
facet normal -1.0000 0.0000 0.0000
outer loop
vertex -0.3600 1.5900 0.2900
vertex -0.3600 1.1300 0.3900
vertex -0.3600 1.5900 0.3900
endloop
endfacet
facet normal 0.0000 0.0000 -1.0000
outer loop
vertex -0.0600 0.9700 0.3800
vertex 0.0600 1.4900 0.3800
vertex 0.0600 0.9700 0.3800
endloop
endfacet
facet normal 0.0000 0.0000 -1.0000
outer loop
vertex -0.0600 0.9700 0.3800
vertex -0.0600 1.4900 0.3800
vertex 0.0600 1.4900 0.3800
endloop
endfacet
facet normal 0.0000 0.0000 1.0000
outer loop
vertex -0.0600 0.9700 0.4600
vertex 0.0600 0.9700 0.4600
vertex 0.0600 1.4900 0.4600
endloop
endfacet
facet normal 0.0000 0.0000 1.0000
outer loop
vertex -0.0600 0.9700 0.4600
vertex 0.0600 1.4900 0.4600
vertex -0.0600 1.4900 0.4600
endloop
endfacet
facet normal 0.0000 -1.0000 0.0000
outer loop
vertex -0.0600 0.9700 0.3800
vertex 0.0600 0.9700 0.3800
vertex 0.0600 0.9700 0.4600
endloop
endfacet
facet normal 0.0000 -1.0000 0.0000
outer loop
vertex -0.0600 0.9700 0.3800
vertex 0.0600 0.9700 0.4600
vertex -0.0600 0.9700 0.4600
endloop
endfacet
facet normal 1.0000 0.0000 0.0000
outer loop
vertex 0.0600 0.9700 0.3800
vertex 0.0600 1.4900 0.3800
vertex 0.0600 1.4900 0.4600
endloop
endfacet
facet normal 1.0000 0.0000 0.0000
outer loop
vertex 0.0600 0.9700 0.3800
vertex 0.0600 1.4900 0.4600
vertex 0.0600 0.9700 0.4600
endloop
endfacet
facet normal 0.0000 1.0000 0.0000
outer loop
vertex 0.0600 1.4900 0.3800
vertex -0.0600 1.4900 0.3800
vertex -0.0600 1.4900 0.4600
endloop
endfacet
facet normal 0.0000 1.0000 0.0000
outer loop
vertex 0.0600 1.4900 0.3800
vertex -0.0600 1.4900 0.4600
vertex 0.0600 1.4900 0.4600
endloop
endfacet
facet normal -1.0000 0.0000 0.0000
outer loop
vertex -0.0600 1.4900 0.3800
vertex -0.0600 0.9700 0.3800
vertex -0.0600 0.9700 0.4600
endloop
endfacet
facet normal -1.0000 0.0000 0.0000
outer loop
vertex -0.0600 1.4900 0.3800
vertex -0.0600 0.9700 0.4600
vertex -0.0600 1.4900 0.4600
endloop
endfacet
facet normal 0.0000 0.0000 -1.0000
outer loop
vertex -0.2900 0.7400 -0.1600
vertex 0.2900 1.0200 -0.1600
vertex 0.2900 0.7400 -0.1600
endloop
endfacet
facet normal 0.0000 0.0000 -1.0000
outer loop
vertex -0.2900 0.7400 -0.1600
vertex -0.2900 1.0200 -0.1600
vertex 0.2900 1.0200 -0.1600
endloop
endfacet
facet normal 0.0000 0.0000 1.0000
outer loop
vertex -0.2900 0.7400 0.2000
vertex 0.2900 0.7400 0.2000
vertex 0.2900 1.0200 0.2000
endloop
endfacet
facet normal 0.0000 0.0000 1.0000
outer loop
vertex -0.2900 0.7400 0.2000
vertex 0.2900 1.0200 0.2000
vertex -0.2900 1.0200 0.2000
endloop
endfacet
facet normal 0.0000 -1.0000 0.0000
outer loop
vertex -0.2900 0.7400 -0.1600
vertex 0.2900 0.7400 -0.1600
vertex 0.2900 0.7400 0.2000
endloop
endfacet
facet normal 0.0000 -1.0000 0.0000
outer loop
vertex -0.2900 0.7400 -0.1600
vertex 0.2900 0.7400 0.2000
vertex -0.2900 0.7400 0.2000
endloop
endfacet
facet normal 1.0000 0.0000 0.0000
outer loop
vertex 0.2900 0.7400 -0.1600
vertex 0.2900 1.0200 -0.1600
vertex 0.2900 1.0200 0.2000
endloop
endfacet
facet normal 1.0000 0.0000 0.0000
outer loop
vertex 0.2900 0.7400 -0.1600
vertex 0.2900 1.0200 0.2000
vertex 0.2900 0.7400 0.2000
endloop
endfacet
facet normal 0.0000 1.0000 0.0000
outer loop
vertex 0.2900 1.0200 -0.1600
vertex -0.2900 1.0200 -0.1600
vertex -0.2900 1.0200 0.2000
endloop
endfacet
facet normal 0.0000 1.0000 0.0000
outer loop
vertex 0.2900 1.0200 -0.1600
vertex -0.2900 1.0200 0.2000
vertex 0.2900 1.0200 0.2000
endloop
endfacet
facet normal -1.0000 0.0000 0.0000
outer loop
vertex -0.2900 1.0200 -0.1600
vertex -0.2900 0.7400 -0.1600
vertex -0.2900 0.7400 0.2000
endloop
endfacet
facet normal -1.0000 0.0000 0.0000
outer loop
vertex -0.2900 1.0200 -0.1600
vertex -0.2900 0.7400 0.2000
vertex -0.2900 1.0200 0.2000
endloop
endfacet
facet normal 0.0000 0.0000 -1.0000
outer loop
vertex -0.5100 0.4500 -0.1400
vertex 0.5100 0.8700 -0.1400
vertex 0.5100 0.4500 -0.1400
endloop
endfacet
facet normal 0.0000 0.0000 -1.0000
outer loop
vertex -0.5100 0.4500 -0.1400
vertex -0.5100 0.8700 -0.1400
vertex 0.5100 0.8700 -0.1400
endloop
endfacet
facet normal 0.0000 0.0000 1.0000
outer loop
vertex -0.5100 0.4500 0.3400
vertex 0.5100 0.4500 0.3400
vertex 0.5100 0.8700 0.3400
endloop
endfacet
facet normal 0.0000 0.0000 1.0000
outer loop
vertex -0.5100 0.4500 0.3400
vertex 0.5100 0.8700 0.3400
vertex -0.5100 0.8700 0.3400
endloop
endfacet
facet normal 0.0000 -1.0000 0.0000
outer loop
vertex -0.5100 0.4500 -0.1400
vertex 0.5100 0.4500 -0.1400
vertex 0.5100 0.4500 0.3400
endloop
endfacet
facet normal 0.0000 -1.0000 0.0000
outer loop
vertex -0.5100 0.4500 -0.1400
vertex 0.5100 0.4500 0.3400
vertex -0.5100 0.4500 0.3400
endloop
endfacet
facet normal 1.0000 0.0000 0.0000
outer loop
vertex 0.5100 0.4500 -0.1400
vertex 0.5100 0.8700 -0.1400
vertex 0.5100 0.8700 0.3400
endloop
endfacet
facet normal 1.0000 0.0000 0.0000
outer loop
vertex 0.5100 0.4500 -0.1400
vertex 0.5100 0.8700 0.3400
vertex 0.5100 0.4500 0.3400
endloop
endfacet
facet normal 0.0000 1.0000 0.0000
outer loop
vertex 0.5100 0.8700 -0.1400
vertex -0.5100 0.8700 -0.1400
vertex -0.5100 0.8700 0.3400
endloop
endfacet
facet normal 0.0000 1.0000 0.0000
outer loop
vertex 0.5100 0.8700 -0.1400
vertex -0.5100 0.8700 0.3400
vertex 0.5100 0.8700 0.3400
endloop
endfacet
facet normal -1.0000 0.0000 0.0000
outer loop
vertex -0.5100 0.8700 -0.1400
vertex -0.5100 0.4500 -0.1400
vertex -0.5100 0.4500 0.3400
endloop
endfacet
facet normal -1.0000 0.0000 0.0000
outer loop
vertex -0.5100 0.8700 -0.1400
vertex -0.5100 0.4500 0.3400
vertex -0.5100 0.8700 0.3400
endloop
endfacet
facet normal 0.0000 0.0000 -1.0000
outer loop
vertex -0.0600 1.3100 -0.3750
vertex 0.0600 1.5300 -0.3750
vertex 0.0600 1.3100 -0.3750
endloop
endfacet
facet normal 0.0000 0.0000 -1.0000
outer loop
vertex -0.0600 1.3100 -0.3750
vertex -0.0600 1.5300 -0.3750
vertex 0.0600 1.5300 -0.3750
endloop
endfacet
facet normal 0.0000 0.0000 1.0000
outer loop
vertex -0.0600 1.3100 -0.2450
vertex 0.0600 1.3100 -0.2450
vertex 0.0600 1.5300 -0.2450
endloop
endfacet
facet normal 0.0000 0.0000 1.0000
outer loop
vertex -0.0600 1.3100 -0.2450
vertex 0.0600 1.5300 -0.2450
vertex -0.0600 1.5300 -0.2450
endloop
endfacet
facet normal 0.0000 -1.0000 0.0000
outer loop
vertex -0.0600 1.3100 -0.3750
vertex 0.0600 1.3100 -0.3750
vertex 0.0600 1.3100 -0.2450
endloop
endfacet
facet normal 0.0000 -1.0000 0.0000
outer loop
vertex -0.0600 1.3100 -0.3750
vertex 0.0600 1.3100 -0.2450
vertex -0.0600 1.3100 -0.2450
endloop
endfacet
facet normal 1.0000 0.0000 0.0000
outer loop
vertex 0.0600 1.3100 -0.3750
vertex 0.0600 1.5300 -0.3750
vertex 0.0600 1.5300 -0.2450
endloop
endfacet
facet normal 1.0000 0.0000 0.0000
outer loop
vertex 0.0600 1.3100 -0.3750
vertex 0.0600 1.5300 -0.2450
vertex 0.0600 1.3100 -0.2450
endloop
endfacet
facet normal 0.0000 1.0000 0.0000
outer loop
vertex 0.0600 1.5300 -0.3750
vertex -0.0600 1.5300 -0.3750
vertex -0.0600 1.5300 -0.2450
endloop
endfacet
facet normal 0.0000 1.0000 0.0000
outer loop
vertex 0.0600 1.5300 -0.3750
vertex -0.0600 1.5300 -0.2450
vertex 0.0600 1.5300 -0.2450
endloop
endfacet
facet normal -1.0000 0.0000 0.0000
outer loop
vertex -0.0600 1.5300 -0.3750
vertex -0.0600 1.3100 -0.3750
vertex -0.0600 1.3100 -0.2450
endloop
endfacet
facet normal -1.0000 0.0000 0.0000
outer loop
vertex -0.0600 1.5300 -0.3750
vertex -0.0600 1.3100 -0.2450
vertex -0.0600 1.5300 -0.2450
endloop
endfacet
facet normal 0.0000 0.0000 -1.0000
outer loop
vertex -0.0700 1.0900 -0.4100
vertex 0.0700 1.3100 -0.4100
vertex 0.0700 1.0900 -0.4100
endloop
endfacet
facet normal 0.0000 0.0000 -1.0000
outer loop
vertex -0.0700 1.0900 -0.4100
vertex -0.0700 1.3100 -0.4100
vertex 0.0700 1.3100 -0.4100
endloop
endfacet
facet normal 0.0000 0.0000 1.0000
outer loop
vertex -0.0700 1.0900 -0.2700
vertex 0.0700 1.0900 -0.2700
vertex 0.0700 1.3100 -0.2700
endloop
endfacet
facet normal 0.0000 0.0000 1.0000
outer loop
vertex -0.0700 1.0900 -0.2700
vertex 0.0700 1.3100 -0.2700
vertex -0.0700 1.3100 -0.2700
endloop
endfacet
facet normal 0.0000 -1.0000 0.0000
outer loop
vertex -0.0700 1.0900 -0.4100
vertex 0.0700 1.0900 -0.4100
vertex 0.0700 1.0900 -0.2700
endloop
endfacet
facet normal 0.0000 -1.0000 0.0000
outer loop
vertex -0.0700 1.0900 -0.4100
vertex 0.0700 1.0900 -0.2700
vertex -0.0700 1.0900 -0.2700
endloop
endfacet
facet normal 1.0000 0.0000 0.0000
outer loop
vertex 0.0700 1.0900 -0.4100
vertex 0.0700 1.3100 -0.4100
vertex 0.0700 1.3100 -0.2700
endloop
endfacet
facet normal 1.0000 0.0000 0.0000
outer loop
vertex 0.0700 1.0900 -0.4100
vertex 0.0700 1.3100 -0.2700
vertex 0.0700 1.0900 -0.2700
endloop
endfacet
facet normal 0.0000 1.0000 0.0000
outer loop
vertex 0.0700 1.3100 -0.4100
vertex -0.0700 1.3100 -0.4100
vertex -0.0700 1.3100 -0.2700
endloop
endfacet
facet normal 0.0000 1.0000 0.0000
outer loop
vertex 0.0700 1.3100 -0.4100
vertex -0.0700 1.3100 -0.2700
vertex 0.0700 1.3100 -0.2700
endloop
endfacet
facet normal -1.0000 0.0000 0.0000
outer loop
vertex -0.0700 1.3100 -0.4100
vertex -0.0700 1.0900 -0.4100
vertex -0.0700 1.0900 -0.2700
endloop
endfacet
facet normal -1.0000 0.0000 0.0000
outer loop
vertex -0.0700 1.3100 -0.4100
vertex -0.0700 1.0900 -0.2700
vertex -0.0700 1.3100 -0.2700
endloop
endfacet
facet normal 0.0000 0.0000 -1.0000
outer loop
vertex -0.0600 0.8900 -0.3700
vertex 0.0600 1.0900 -0.3700
vertex 0.0600 0.8900 -0.3700
endloop
endfacet
facet normal 0.0000 0.0000 -1.0000
outer loop
vertex -0.0600 0.8900 -0.3700
vertex -0.0600 1.0900 -0.3700
vertex 0.0600 1.0900 -0.3700
endloop
endfacet
facet normal 0.0000 0.0000 1.0000
outer loop
vertex -0.0600 0.8900 -0.2500
vertex 0.0600 0.8900 -0.2500
vertex 0.0600 1.0900 -0.2500
endloop
endfacet
facet normal 0.0000 0.0000 1.0000
outer loop
vertex -0.0600 0.8900 -0.2500
vertex 0.0600 1.0900 -0.2500
vertex -0.0600 1.0900 -0.2500
endloop
endfacet
facet normal 0.0000 -1.0000 0.0000
outer loop
vertex -0.0600 0.8900 -0.3700
vertex 0.0600 0.8900 -0.3700
vertex 0.0600 0.8900 -0.2500
endloop
endfacet
facet normal 0.0000 -1.0000 0.0000
outer loop
vertex -0.0600 0.8900 -0.3700
vertex 0.0600 0.8900 -0.2500
vertex -0.0600 0.8900 -0.2500
endloop
endfacet
facet normal 1.0000 0.0000 0.0000
outer loop
vertex 0.0600 0.8900 -0.3700
vertex 0.0600 1.0900 -0.3700
vertex 0.0600 1.0900 -0.2500
endloop
endfacet
facet normal 1.0000 0.0000 0.0000
outer loop
vertex 0.0600 0.8900 -0.3700
vertex 0.0600 1.0900 -0.2500
vertex 0.0600 0.8900 -0.2500
endloop
endfacet
facet normal 0.0000 1.0000 0.0000
outer loop
vertex 0.0600 1.0900 -0.3700
vertex -0.0600 1.0900 -0.3700
vertex -0.0600 1.0900 -0.2500
endloop
endfacet
facet normal 0.0000 1.0000 0.0000
outer loop
vertex 0.0600 1.0900 -0.3700
vertex -0.0600 1.0900 -0.2500
vertex 0.0600 1.0900 -0.2500
endloop
endfacet
facet normal -1.0000 0.0000 0.0000
outer loop
vertex -0.0600 1.0900 -0.3700
vertex -0.0600 0.8900 -0.3700
vertex -0.0600 0.8900 -0.2500
endloop
endfacet
facet normal -1.0000 0.0000 0.0000
outer loop
vertex -0.0600 1.0900 -0.3700
vertex -0.0600 0.8900 -0.2500
vertex -0.0600 1.0900 -0.2500
endloop
endfacet
facet normal 0.3123 -0.0377 -0.9492
outer loop
vertex -0.7254 1.1658 -0.3129
vertex -0.2722 1.5946 -0.1807
vertex -0.3296 1.1181 -0.1807
endloop
endfacet
facet normal 0.3123 -0.0377 -0.9492
outer loop
vertex -0.7254 1.1658 -0.3129
vertex -0.6680 1.6423 -0.3129
vertex -0.2722 1.5946 -0.1807
endloop
endfacet
facet normal -0.3123 0.0377 0.9492
outer loop
vertex -0.8878 1.1854 0.1807
vertex -0.4920 1.1377 0.3129
vertex -0.4346 1.6142 0.3129
endloop
endfacet
facet normal -0.3123 0.0377 0.9492
outer loop
vertex -0.8878 1.1854 0.1807
vertex -0.4346 1.6142 0.3129
vertex -0.8304 1.6619 0.1807
endloop
endfacet
facet normal -0.1197 -0.9928 0.0000
outer loop
vertex -0.7254 1.1658 -0.3129
vertex -0.3296 1.1181 -0.1807
vertex -0.4920 1.1377 0.3129
endloop
endfacet
facet normal -0.1197 -0.9928 -0.0000
outer loop
vertex -0.7254 1.1658 -0.3129
vertex -0.4920 1.1377 0.3129
vertex -0.8878 1.1854 0.1807
endloop
endfacet
facet normal 0.9424 -0.1136 0.3146
outer loop
vertex -0.3296 1.1181 -0.1807
vertex -0.2722 1.5946 -0.1807
vertex -0.4346 1.6142 0.3129
endloop
endfacet
facet normal 0.9424 -0.1136 0.3146
outer loop
vertex -0.3296 1.1181 -0.1807
vertex -0.4346 1.6142 0.3129
vertex -0.4920 1.1377 0.3129
endloop
endfacet
facet normal 0.1197 0.9928 -0.0000
outer loop
vertex -0.2722 1.5946 -0.1807
vertex -0.6680 1.6423 -0.3129
vertex -0.8304 1.6619 0.1807
endloop
endfacet
facet normal 0.1197 0.9928 0.0000
outer loop
vertex -0.2722 1.5946 -0.1807
vertex -0.8304 1.6619 0.1807
vertex -0.4346 1.6142 0.3129
endloop
endfacet
facet normal -0.9424 0.1136 -0.3146
outer loop
vertex -0.6680 1.6423 -0.3129
vertex -0.7254 1.1658 -0.3129
vertex -0.8878 1.1854 0.1807
endloop
endfacet
facet normal -0.9424 0.1136 -0.3146
outer loop
vertex -0.6680 1.6423 -0.3129
vertex -0.8878 1.1854 0.1807
vertex -0.8304 1.6619 0.1807
endloop
endfacet
facet normal -0.3123 -0.0377 -0.9492
outer loop
vertex 0.3296 1.1181 -0.1807
vertex 0.6680 1.6423 -0.3129
vertex 0.7254 1.1658 -0.3129
endloop
endfacet
facet normal -0.3123 -0.0377 -0.9492
outer loop
vertex 0.3296 1.1181 -0.1807
vertex 0.2722 1.5946 -0.1807
vertex 0.6680 1.6423 -0.3129
endloop
endfacet
facet normal 0.3123 0.0377 0.9492
outer loop
vertex 0.4920 1.1377 0.3129
vertex 0.8878 1.1854 0.1807
vertex 0.8304 1.6619 0.1807
endloop
endfacet
facet normal 0.3123 0.0377 0.9492
outer loop
vertex 0.4920 1.1377 0.3129
vertex 0.8304 1.6619 0.1807
vertex 0.4346 1.6142 0.3129
endloop
endfacet
facet normal 0.1197 -0.9928 -0.0000
outer loop
vertex 0.3296 1.1181 -0.1807
vertex 0.7254 1.1658 -0.3129
vertex 0.8878 1.1854 0.1807
endloop
endfacet
facet normal 0.1197 -0.9928 0.0000
outer loop
vertex 0.3296 1.1181 -0.1807
vertex 0.8878 1.1854 0.1807
vertex 0.4920 1.1377 0.3129
endloop
endfacet
facet normal 0.9424 0.1136 -0.3146
outer loop
vertex 0.7254 1.1658 -0.3129
vertex 0.6680 1.6423 -0.3129
vertex 0.8304 1.6619 0.1807
endloop
endfacet
facet normal 0.9424 0.1136 -0.3146
outer loop
vertex 0.7254 1.1658 -0.3129
vertex 0.8304 1.6619 0.1807
vertex 0.8878 1.1854 0.1807
endloop
endfacet
facet normal -0.1197 0.9928 0.0000
outer loop
vertex 0.6680 1.6423 -0.3129
vertex 0.2722 1.5946 -0.1807
vertex 0.4346 1.6142 0.3129
endloop
endfacet
facet normal -0.1197 0.9928 -0.0000
outer loop
vertex 0.6680 1.6423 -0.3129
vertex 0.4346 1.6142 0.3129
vertex 0.8304 1.6619 0.1807
endloop
endfacet
facet normal -0.9424 -0.1136 0.3146
outer loop
vertex 0.2722 1.5946 -0.1807
vertex 0.3296 1.1181 -0.1807
vertex 0.4920 1.1377 0.3129
endloop
endfacet
facet normal -0.9424 -0.1136 0.3146
outer loop
vertex 0.2722 1.5946 -0.1807
vertex 0.4920 1.1377 0.3129
vertex 0.4346 1.6142 0.3129
endloop
endfacet
facet normal 0.0998 0.0000 -0.9950
outer loop
vertex -0.8543 0.7600 -0.1642
vertex -0.5558 1.3400 -0.1343
vertex -0.5558 0.7600 -0.1343
endloop
endfacet
facet normal 0.0998 0.0000 -0.9950
outer loop
vertex -0.8543 0.7600 -0.1642
vertex -0.8543 1.3400 -0.1642
vertex -0.5558 1.3400 -0.1343
endloop
endfacet
facet normal -0.0998 0.0000 0.9950
outer loop
vertex -0.8842 0.7600 0.1343
vertex -0.5857 0.7600 0.1642
vertex -0.5857 1.3400 0.1642
endloop
endfacet
facet normal -0.0998 0.0000 0.9950
outer loop
vertex -0.8842 0.7600 0.1343
vertex -0.5857 1.3400 0.1642
vertex -0.8842 1.3400 0.1343
endloop
endfacet
facet normal 0.0000 -1.0000 0.0000
outer loop
vertex -0.8543 0.7600 -0.1642
vertex -0.5558 0.7600 -0.1343
vertex -0.5857 0.7600 0.1642
endloop
endfacet
facet normal 0.0000 -1.0000 0.0000
outer loop
vertex -0.8543 0.7600 -0.1642
vertex -0.5857 0.7600 0.1642
vertex -0.8842 0.7600 0.1343
endloop
endfacet
facet normal 0.9950 0.0000 0.0998
outer loop
vertex -0.5558 0.7600 -0.1343
vertex -0.5558 1.3400 -0.1343
vertex -0.5857 1.3400 0.1642
endloop
endfacet
facet normal 0.9950 0.0000 0.0998
outer loop
vertex -0.5558 0.7600 -0.1343
vertex -0.5857 1.3400 0.1642
vertex -0.5857 0.7600 0.1642
endloop
endfacet
facet normal 0.0000 1.0000 0.0000
outer loop
vertex -0.5558 1.3400 -0.1343
vertex -0.8543 1.3400 -0.1642
vertex -0.8842 1.3400 0.1343
endloop
endfacet
facet normal 0.0000 1.0000 0.0000
outer loop
vertex -0.5558 1.3400 -0.1343
vertex -0.8842 1.3400 0.1343
vertex -0.5857 1.3400 0.1642
endloop
endfacet
facet normal -0.9950 0.0000 -0.0998
outer loop
vertex -0.8543 1.3400 -0.1642
vertex -0.8543 0.7600 -0.1642
vertex -0.8842 0.7600 0.1343
endloop
endfacet
facet normal -0.9950 0.0000 -0.0998
outer loop
vertex -0.8543 1.3400 -0.1642
vertex -0.8842 0.7600 0.1343
vertex -0.8842 1.3400 0.1343
endloop
endfacet
facet normal -0.0998 0.0000 -0.9950
outer loop
vertex 0.5558 0.7600 -0.1343
vertex 0.8543 1.3400 -0.1642
vertex 0.8543 0.7600 -0.1642
endloop
endfacet
facet normal -0.0998 0.0000 -0.9950
outer loop
vertex 0.5558 0.7600 -0.1343
vertex 0.5558 1.3400 -0.1343
vertex 0.8543 1.3400 -0.1642
endloop
endfacet
facet normal 0.0998 0.0000 0.9950
outer loop
vertex 0.5857 0.7600 0.1642
vertex 0.8842 0.7600 0.1343
vertex 0.8842 1.3400 0.1343
endloop
endfacet
facet normal 0.0998 0.0000 0.9950
outer loop
vertex 0.5857 0.7600 0.1642
vertex 0.8842 1.3400 0.1343
vertex 0.5857 1.3400 0.1642
endloop
endfacet
facet normal 0.0000 -1.0000 0.0000
outer loop
vertex 0.5558 0.7600 -0.1343
vertex 0.8543 0.7600 -0.1642
vertex 0.8842 0.7600 0.1343
endloop
endfacet
facet normal 0.0000 -1.0000 0.0000
outer loop
vertex 0.5558 0.7600 -0.1343
vertex 0.8842 0.7600 0.1343
vertex 0.5857 0.7600 0.1642
endloop
endfacet
facet normal 0.9950 0.0000 -0.0998
outer loop
vertex 0.8543 0.7600 -0.1642
vertex 0.8543 1.3400 -0.1642
vertex 0.8842 1.3400 0.1343
endloop
endfacet
facet normal 0.9950 0.0000 -0.0998
outer loop
vertex 0.8543 0.7600 -0.1642
vertex 0.8842 1.3400 0.1343
vertex 0.8842 0.7600 0.1343
endloop
endfacet
facet normal 0.0000 1.0000 0.0000
outer loop
vertex 0.8543 1.3400 -0.1642
vertex 0.5558 1.3400 -0.1343
vertex 0.5857 1.3400 0.1642
endloop
endfacet
facet normal 0.0000 1.0000 0.0000
outer loop
vertex 0.8543 1.3400 -0.1642
vertex 0.5857 1.3400 0.1642
vertex 0.8842 1.3400 0.1343
endloop
endfacet
facet normal -0.9950 0.0000 0.0998
outer loop
vertex 0.5558 1.3400 -0.1343
vertex 0.5558 0.7600 -0.1343
vertex 0.5857 0.7600 0.1642
endloop
endfacet
facet normal -0.9950 0.0000 0.0998
outer loop
vertex 0.5558 1.3400 -0.1343
vertex 0.5857 0.7600 0.1642
vertex 0.5857 1.3400 0.1642
endloop
endfacet
facet normal 0.0000 1.0000 0.0000
outer loop
vertex -0.8500 0.8200 -0.2100
vertex -0.5900 0.8200 0.2900
vertex -0.5900 0.8200 -0.2100
endloop
endfacet
facet normal 0.0000 1.0000 0.0000
outer loop
vertex -0.8500 0.8200 -0.2100
vertex -0.8500 0.8200 0.2900
vertex -0.5900 0.8200 0.2900
endloop
endfacet
facet normal 0.0000 -1.0000 0.0000
outer loop
vertex -0.8500 0.5400 -0.2100
vertex -0.5900 0.5400 -0.2100
vertex -0.5900 0.5400 0.2900
endloop
endfacet
facet normal 0.0000 -1.0000 0.0000
outer loop
vertex -0.8500 0.5400 -0.2100
vertex -0.5900 0.5400 0.2900
vertex -0.8500 0.5400 0.2900
endloop
endfacet
facet normal 0.0000 0.0000 -1.0000
outer loop
vertex -0.8500 0.8200 -0.2100
vertex -0.5900 0.8200 -0.2100
vertex -0.5900 0.5400 -0.2100
endloop
endfacet
facet normal 0.0000 0.0000 -1.0000
outer loop
vertex -0.8500 0.8200 -0.2100
vertex -0.5900 0.5400 -0.2100
vertex -0.8500 0.5400 -0.2100
endloop
endfacet
facet normal 1.0000 0.0000 0.0000
outer loop
vertex -0.5900 0.8200 -0.2100
vertex -0.5900 0.8200 0.2900
vertex -0.5900 0.5400 0.2900
endloop
endfacet
facet normal 1.0000 0.0000 0.0000
outer loop
vertex -0.5900 0.8200 -0.2100
vertex -0.5900 0.5400 0.2900
vertex -0.5900 0.5400 -0.2100
endloop
endfacet
facet normal 0.0000 0.0000 1.0000
outer loop
vertex -0.5900 0.8200 0.2900
vertex -0.8500 0.8200 0.2900
vertex -0.8500 0.5400 0.2900
endloop
endfacet
facet normal 0.0000 0.0000 1.0000
outer loop
vertex -0.5900 0.8200 0.2900
vertex -0.8500 0.5400 0.2900
vertex -0.5900 0.5400 0.2900
endloop
endfacet
facet normal -1.0000 0.0000 0.0000
outer loop
vertex -0.8500 0.8200 0.2900
vertex -0.8500 0.8200 -0.2100
vertex -0.8500 0.5400 -0.2100
endloop
endfacet
facet normal -1.0000 0.0000 0.0000
outer loop
vertex -0.8500 0.8200 0.2900
vertex -0.8500 0.5400 -0.2100
vertex -0.8500 0.5400 0.2900
endloop
endfacet
facet normal 0.0000 1.0000 0.0000
outer loop
vertex 0.5900 0.8200 -0.2100
vertex 0.8500 0.8200 0.2900
vertex 0.8500 0.8200 -0.2100
endloop
endfacet
facet normal 0.0000 1.0000 0.0000
outer loop
vertex 0.5900 0.8200 -0.2100
vertex 0.5900 0.8200 0.2900
vertex 0.8500 0.8200 0.2900
endloop
endfacet
facet normal 0.0000 -1.0000 0.0000
outer loop
vertex 0.5900 0.5400 -0.2100
vertex 0.8500 0.5400 -0.2100
vertex 0.8500 0.5400 0.2900
endloop
endfacet
facet normal 0.0000 -1.0000 0.0000
outer loop
vertex 0.5900 0.5400 -0.2100
vertex 0.8500 0.5400 0.2900
vertex 0.5900 0.5400 0.2900
endloop
endfacet
facet normal 0.0000 0.0000 -1.0000
outer loop
vertex 0.5900 0.8200 -0.2100
vertex 0.8500 0.8200 -0.2100
vertex 0.8500 0.5400 -0.2100
endloop
endfacet
facet normal 0.0000 0.0000 -1.0000
outer loop
vertex 0.5900 0.8200 -0.2100
vertex 0.8500 0.5400 -0.2100
vertex 0.5900 0.5400 -0.2100
endloop
endfacet
facet normal 1.0000 0.0000 0.0000
outer loop
vertex 0.8500 0.8200 -0.2100
vertex 0.8500 0.8200 0.2900
vertex 0.8500 0.5400 0.2900
endloop
endfacet
facet normal 1.0000 0.0000 0.0000
outer loop
vertex 0.8500 0.8200 -0.2100
vertex 0.8500 0.5400 0.2900
vertex 0.8500 0.5400 -0.2100
endloop
endfacet
facet normal 0.0000 0.0000 1.0000
outer loop
vertex 0.8500 0.8200 0.2900
vertex 0.5900 0.8200 0.2900
vertex 0.5900 0.5400 0.2900
endloop
endfacet
facet normal 0.0000 0.0000 1.0000
outer loop
vertex 0.8500 0.8200 0.2900
vertex 0.5900 0.5400 0.2900
vertex 0.8500 0.5400 0.2900
endloop
endfacet
facet normal -1.0000 0.0000 0.0000
outer loop
vertex 0.5900 0.8200 0.2900
vertex 0.5900 0.8200 -0.2100
vertex 0.5900 0.5400 -0.2100
endloop
endfacet
facet normal -1.0000 0.0000 0.0000
outer loop
vertex 0.5900 0.8200 0.2900
vertex 0.5900 0.5400 -0.2100
vertex 0.5900 0.5400 0.2900
endloop
endfacet
facet normal 0.0000 0.0000 -1.0000
outer loop
vertex -0.8994 0.2790 -0.0700
vertex -0.5406 0.5010 -0.0700
vertex -0.5605 0.2518 -0.0700
endloop
endfacet
facet normal 0.0000 0.0000 -1.0000
outer loop
vertex -0.8994 0.2790 -0.0700
vertex -0.8795 0.5282 -0.0700
vertex -0.5406 0.5010 -0.0700
endloop
endfacet
facet normal 0.0000 0.0000 1.0000
outer loop
vertex -0.8994 0.2790 0.2900
vertex -0.5605 0.2518 0.2900
vertex -0.5406 0.5010 0.2900
endloop
endfacet
facet normal 0.0000 0.0000 1.0000
outer loop
vertex -0.8994 0.2790 0.2900
vertex -0.5406 0.5010 0.2900
vertex -0.8795 0.5282 0.2900
endloop
endfacet
facet normal -0.0799 -0.9968 0.0000
outer loop
vertex -0.8994 0.2790 -0.0700
vertex -0.5605 0.2518 -0.0700
vertex -0.5605 0.2518 0.2900
endloop
endfacet
facet normal -0.0799 -0.9968 0.0000
outer loop
vertex -0.8994 0.2790 -0.0700
vertex -0.5605 0.2518 0.2900
vertex -0.8994 0.2790 0.2900
endloop
endfacet
facet normal 0.9968 -0.0799 0.0000
outer loop
vertex -0.5605 0.2518 -0.0700
vertex -0.5406 0.5010 -0.0700
vertex -0.5406 0.5010 0.2900
endloop
endfacet
facet normal 0.9968 -0.0799 0.0000
outer loop
vertex -0.5605 0.2518 -0.0700
vertex -0.5406 0.5010 0.2900
vertex -0.5605 0.2518 0.2900
endloop
endfacet
facet normal 0.0799 0.9968 0.0000
outer loop
vertex -0.5406 0.5010 -0.0700
vertex -0.8795 0.5282 -0.0700
vertex -0.8795 0.5282 0.2900
endloop
endfacet
facet normal 0.0799 0.9968 0.0000
outer loop
vertex -0.5406 0.5010 -0.0700
vertex -0.8795 0.5282 0.2900
vertex -0.5406 0.5010 0.2900
endloop
endfacet
facet normal -0.9968 0.0799 0.0000
outer loop
vertex -0.8795 0.5282 -0.0700
vertex -0.8994 0.2790 -0.0700
vertex -0.8994 0.2790 0.2900
endloop
endfacet
facet normal -0.9968 0.0799 0.0000
outer loop
vertex -0.8795 0.5282 -0.0700
vertex -0.8994 0.2790 0.2900
vertex -0.8795 0.5282 0.2900
endloop
endfacet
facet normal 0.0000 0.0000 -1.0000
outer loop
vertex 0.5605 0.2518 -0.0700
vertex 0.8795 0.5282 -0.0700
vertex 0.8994 0.2790 -0.0700
endloop
endfacet
facet normal 0.0000 0.0000 -1.0000
outer loop
vertex 0.5605 0.2518 -0.0700
vertex 0.5406 0.5010 -0.0700
vertex 0.8795 0.5282 -0.0700
endloop
endfacet
facet normal 0.0000 0.0000 1.0000
outer loop
vertex 0.5605 0.2518 0.2900
vertex 0.8994 0.2790 0.2900
vertex 0.8795 0.5282 0.2900
endloop
endfacet
facet normal 0.0000 0.0000 1.0000
outer loop
vertex 0.5605 0.2518 0.2900
vertex 0.8795 0.5282 0.2900
vertex 0.5406 0.5010 0.2900
endloop
endfacet
facet normal 0.0799 -0.9968 0.0000
outer loop
vertex 0.5605 0.2518 -0.0700
vertex 0.8994 0.2790 -0.0700
vertex 0.8994 0.2790 0.2900
endloop
endfacet
facet normal 0.0799 -0.9968 0.0000
outer loop
vertex 0.5605 0.2518 -0.0700
vertex 0.8994 0.2790 0.2900
vertex 0.5605 0.2518 0.2900
endloop
endfacet
facet normal 0.9968 0.0799 0.0000
outer loop
vertex 0.8994 0.2790 -0.0700
vertex 0.8795 0.5282 -0.0700
vertex 0.8795 0.5282 0.2900
endloop
endfacet
facet normal 0.9968 0.0799 0.0000
outer loop
vertex 0.8994 0.2790 -0.0700
vertex 0.8795 0.5282 0.2900
vertex 0.8994 0.2790 0.2900
endloop
endfacet
facet normal -0.0799 0.9968 0.0000
outer loop
vertex 0.8795 0.5282 -0.0700
vertex 0.5406 0.5010 -0.0700
vertex 0.5406 0.5010 0.2900
endloop
endfacet
facet normal -0.0799 0.9968 0.0000
outer loop
vertex 0.8795 0.5282 -0.0700
vertex 0.5406 0.5010 0.2900
vertex 0.8795 0.5282 0.2900
endloop
endfacet
facet normal -0.9968 -0.0799 0.0000
outer loop
vertex 0.5406 0.5010 -0.0700
vertex 0.5605 0.2518 -0.0700
vertex 0.5605 0.2518 0.2900
endloop
endfacet
facet normal -0.9968 -0.0799 0.0000
outer loop
vertex 0.5406 0.5010 -0.0700
vertex 0.5605 0.2518 0.2900
vertex 0.5406 0.5010 0.2900
endloop
endfacet
facet normal 0.0000 0.0000 -1.0000
outer loop
vertex -0.7800 1.0600 0.0200
vertex -0.6600 1.2600 0.0200
vertex -0.6600 1.0600 0.0200
endloop
endfacet
facet normal 0.0000 0.0000 -1.0000
outer loop
vertex -0.7800 1.0600 0.0200
vertex -0.7800 1.2600 0.0200
vertex -0.6600 1.2600 0.0200
endloop
endfacet
facet normal 0.0000 0.0000 1.0000
outer loop
vertex -0.7800 1.0600 0.3000
vertex -0.6600 1.0600 0.3000
vertex -0.6600 1.2600 0.3000
endloop
endfacet
facet normal 0.0000 0.0000 1.0000
outer loop
vertex -0.7800 1.0600 0.3000
vertex -0.6600 1.2600 0.3000
vertex -0.7800 1.2600 0.3000
endloop
endfacet
facet normal 0.0000 -1.0000 0.0000
outer loop
vertex -0.7800 1.0600 0.0200
vertex -0.6600 1.0600 0.0200
vertex -0.6600 1.0600 0.3000
endloop
endfacet
facet normal 0.0000 -1.0000 0.0000
outer loop
vertex -0.7800 1.0600 0.0200
vertex -0.6600 1.0600 0.3000
vertex -0.7800 1.0600 0.3000
endloop
endfacet
facet normal 1.0000 0.0000 0.0000
outer loop
vertex -0.6600 1.0600 0.0200
vertex -0.6600 1.2600 0.0200
vertex -0.6600 1.2600 0.3000
endloop
endfacet
facet normal 1.0000 0.0000 0.0000
outer loop
vertex -0.6600 1.0600 0.0200
vertex -0.6600 1.2600 0.3000
vertex -0.6600 1.0600 0.3000
endloop
endfacet
facet normal 0.0000 1.0000 0.0000
outer loop
vertex -0.6600 1.2600 0.0200
vertex -0.7800 1.2600 0.0200
vertex -0.7800 1.2600 0.3000
endloop
endfacet
facet normal 0.0000 1.0000 0.0000
outer loop
vertex -0.6600 1.2600 0.0200
vertex -0.7800 1.2600 0.3000
vertex -0.6600 1.2600 0.3000
endloop
endfacet
facet normal -1.0000 0.0000 0.0000
outer loop
vertex -0.7800 1.2600 0.0200
vertex -0.7800 1.0600 0.0200
vertex -0.7800 1.0600 0.3000
endloop
endfacet
facet normal -1.0000 0.0000 0.0000
outer loop
vertex -0.7800 1.2600 0.0200
vertex -0.7800 1.0600 0.3000
vertex -0.7800 1.2600 0.3000
endloop
endfacet
facet normal 0.0000 0.0000 -1.0000
outer loop
vertex 0.6600 1.0600 0.0200
vertex 0.7800 1.2600 0.0200
vertex 0.7800 1.0600 0.0200
endloop
endfacet
facet normal 0.0000 0.0000 -1.0000
outer loop
vertex 0.6600 1.0600 0.0200
vertex 0.6600 1.2600 0.0200
vertex 0.7800 1.2600 0.0200
endloop
endfacet
facet normal 0.0000 0.0000 1.0000
outer loop
vertex 0.6600 1.0600 0.3000
vertex 0.7800 1.0600 0.3000
vertex 0.7800 1.2600 0.3000
endloop
endfacet
facet normal 0.0000 0.0000 1.0000
outer loop
vertex 0.6600 1.0600 0.3000
vertex 0.7800 1.2600 0.3000
vertex 0.6600 1.2600 0.3000
endloop
endfacet
facet normal 0.0000 -1.0000 0.0000
outer loop
vertex 0.6600 1.0600 0.0200
vertex 0.7800 1.0600 0.0200
vertex 0.7800 1.0600 0.3000
endloop
endfacet
facet normal 0.0000 -1.0000 0.0000
outer loop
vertex 0.6600 1.0600 0.0200
vertex 0.7800 1.0600 0.3000
vertex 0.6600 1.0600 0.3000
endloop
endfacet
facet normal 1.0000 0.0000 0.0000
outer loop
vertex 0.7800 1.0600 0.0200
vertex 0.7800 1.2600 0.0200
vertex 0.7800 1.2600 0.3000
endloop
endfacet
facet normal 1.0000 0.0000 0.0000
outer loop
vertex 0.7800 1.0600 0.0200
vertex 0.7800 1.2600 0.3000
vertex 0.7800 1.0600 0.3000
endloop
endfacet
facet normal 0.0000 1.0000 0.0000
outer loop
vertex 0.7800 1.2600 0.0200
vertex 0.6600 1.2600 0.0200
vertex 0.6600 1.2600 0.3000
endloop
endfacet
facet normal 0.0000 1.0000 0.0000
outer loop
vertex 0.7800 1.2600 0.0200
vertex 0.6600 1.2600 0.3000
vertex 0.7800 1.2600 0.3000
endloop
endfacet
facet normal -1.0000 0.0000 0.0000
outer loop
vertex 0.6600 1.2600 0.0200
vertex 0.6600 1.0600 0.0200
vertex 0.6600 1.0600 0.3000
endloop
endfacet
facet normal -1.0000 0.0000 0.0000
outer loop
vertex 0.6600 1.2600 0.0200
vertex 0.6600 1.0600 0.3000
vertex 0.6600 1.2600 0.3000
endloop
endfacet
facet normal 0.0699 0.0000 -0.9976
outer loop
vertex -0.4055 -0.0500 -0.2128
vertex -0.0265 0.6100 -0.1862
vertex -0.0265 -0.0500 -0.1862
endloop
endfacet
facet normal 0.0699 0.0000 -0.9976
outer loop
vertex -0.4055 -0.0500 -0.2128
vertex -0.4055 0.6100 -0.2128
vertex -0.0265 0.6100 -0.1862
endloop
endfacet
facet normal -0.0699 0.0000 0.9976
outer loop
vertex -0.4335 -0.0500 0.1862
vertex -0.0545 -0.0500 0.2128
vertex -0.0545 0.6100 0.2128
endloop
endfacet
facet normal -0.0699 0.0000 0.9976
outer loop
vertex -0.4335 -0.0500 0.1862
vertex -0.0545 0.6100 0.2128
vertex -0.4335 0.6100 0.1862
endloop
endfacet
facet normal 0.0000 -1.0000 0.0000
outer loop
vertex -0.4055 -0.0500 -0.2128
vertex -0.0265 -0.0500 -0.1862
vertex -0.0545 -0.0500 0.2128
endloop
endfacet
facet normal 0.0000 -1.0000 0.0000
outer loop
vertex -0.4055 -0.0500 -0.2128
vertex -0.0545 -0.0500 0.2128
vertex -0.4335 -0.0500 0.1862
endloop
endfacet
facet normal 0.9976 0.0000 0.0699
outer loop
vertex -0.0265 -0.0500 -0.1862
vertex -0.0265 0.6100 -0.1862
vertex -0.0545 0.6100 0.2128
endloop
endfacet
facet normal 0.9976 0.0000 0.0699
outer loop
vertex -0.0265 -0.0500 -0.1862
vertex -0.0545 0.6100 0.2128
vertex -0.0545 -0.0500 0.2128
endloop
endfacet
facet normal 0.0000 1.0000 0.0000
outer loop
vertex -0.0265 0.6100 -0.1862
vertex -0.4055 0.6100 -0.2128
vertex -0.4335 0.6100 0.1862
endloop
endfacet
facet normal 0.0000 1.0000 0.0000
outer loop
vertex -0.0265 0.6100 -0.1862
vertex -0.4335 0.6100 0.1862
vertex -0.0545 0.6100 0.2128
endloop
endfacet
facet normal -0.9976 0.0000 -0.0699
outer loop
vertex -0.4055 0.6100 -0.2128
vertex -0.4055 -0.0500 -0.2128
vertex -0.4335 -0.0500 0.1862
endloop
endfacet
facet normal -0.9976 0.0000 -0.0699
outer loop
vertex -0.4055 0.6100 -0.2128
vertex -0.4335 -0.0500 0.1862
vertex -0.4335 0.6100 0.1862
endloop
endfacet
facet normal -0.0699 0.0000 -0.9976
outer loop
vertex 0.0265 -0.0500 -0.1862
vertex 0.4055 0.6100 -0.2128
vertex 0.4055 -0.0500 -0.2128
endloop
endfacet
facet normal -0.0699 0.0000 -0.9976
outer loop
vertex 0.0265 -0.0500 -0.1862
vertex 0.0265 0.6100 -0.1862
vertex 0.4055 0.6100 -0.2128
endloop
endfacet
facet normal 0.0699 0.0000 0.9976
outer loop
vertex 0.0545 -0.0500 0.2128
vertex 0.4335 -0.0500 0.1862
vertex 0.4335 0.6100 0.1862
endloop
endfacet
facet normal 0.0699 0.0000 0.9976
outer loop
vertex 0.0545 -0.0500 0.2128
vertex 0.4335 0.6100 0.1862
vertex 0.0545 0.6100 0.2128
endloop
endfacet
facet normal 0.0000 -1.0000 0.0000
outer loop
vertex 0.0265 -0.0500 -0.1862
vertex 0.4055 -0.0500 -0.2128
vertex 0.4335 -0.0500 0.1862
endloop
endfacet
facet normal 0.0000 -1.0000 0.0000
outer loop
vertex 0.0265 -0.0500 -0.1862
vertex 0.4335 -0.0500 0.1862
vertex 0.0545 -0.0500 0.2128
endloop
endfacet
facet normal 0.9976 0.0000 -0.0699
outer loop
vertex 0.4055 -0.0500 -0.2128
vertex 0.4055 0.6100 -0.2128
vertex 0.4335 0.6100 0.1862
endloop
endfacet
facet normal 0.9976 0.0000 -0.0699
outer loop
vertex 0.4055 -0.0500 -0.2128
vertex 0.4335 0.6100 0.1862
vertex 0.4335 -0.0500 0.1862
endloop
endfacet
facet normal 0.0000 1.0000 0.0000
outer loop
vertex 0.4055 0.6100 -0.2128
vertex 0.0265 0.6100 -0.1862
vertex 0.0545 0.6100 0.2128
endloop
endfacet
facet normal 0.0000 1.0000 0.0000
outer loop
vertex 0.4055 0.6100 -0.2128
vertex 0.0545 0.6100 0.2128
vertex 0.4335 0.6100 0.1862
endloop
endfacet
facet normal -0.9976 0.0000 0.0699
outer loop
vertex 0.0265 0.6100 -0.1862
vertex 0.0265 -0.0500 -0.1862
vertex 0.0545 -0.0500 0.2128
endloop
endfacet
facet normal -0.9976 0.0000 0.0699
outer loop
vertex 0.0265 0.6100 -0.1862
vertex 0.0545 -0.0500 0.2128
vertex 0.0545 0.6100 0.2128
endloop
endfacet
facet normal 0.0998 0.0000 -0.9950
outer loop
vertex -0.4120 -0.2400 0.0109
vertex -0.0140 0.0400 0.0508
vertex -0.0140 -0.2400 0.0508
endloop
endfacet
facet normal 0.0998 0.0000 -0.9950
outer loop
vertex -0.4120 -0.2400 0.0109
vertex -0.4120 0.0400 0.0109
vertex -0.0140 0.0400 0.0508
endloop
endfacet
facet normal -0.0998 0.0000 0.9950
outer loop
vertex -0.4460 -0.2400 0.3492
vertex -0.0480 -0.2400 0.3891
vertex -0.0480 0.0400 0.3891
endloop
endfacet
facet normal -0.0998 0.0000 0.9950
outer loop
vertex -0.4460 -0.2400 0.3492
vertex -0.0480 0.0400 0.3891
vertex -0.4460 0.0400 0.3492
endloop
endfacet
facet normal 0.0000 -1.0000 0.0000
outer loop
vertex -0.4120 -0.2400 0.0109
vertex -0.0140 -0.2400 0.0508
vertex -0.0480 -0.2400 0.3891
endloop
endfacet
facet normal 0.0000 -1.0000 0.0000
outer loop
vertex -0.4120 -0.2400 0.0109
vertex -0.0480 -0.2400 0.3891
vertex -0.4460 -0.2400 0.3492
endloop
endfacet
facet normal 0.9950 0.0000 0.0998
outer loop
vertex -0.0140 -0.2400 0.0508
vertex -0.0140 0.0400 0.0508
vertex -0.0480 0.0400 0.3891
endloop
endfacet
facet normal 0.9950 0.0000 0.0998
outer loop
vertex -0.0140 -0.2400 0.0508
vertex -0.0480 0.0400 0.3891
vertex -0.0480 -0.2400 0.3891
endloop
endfacet
facet normal 0.0000 1.0000 0.0000
outer loop
vertex -0.0140 0.0400 0.0508
vertex -0.4120 0.0400 0.0109
vertex -0.4460 0.0400 0.3492
endloop
endfacet
facet normal 0.0000 1.0000 0.0000
outer loop
vertex -0.0140 0.0400 0.0508
vertex -0.4460 0.0400 0.3492
vertex -0.0480 0.0400 0.3891
endloop
endfacet
facet normal -0.9950 0.0000 -0.0998
outer loop
vertex -0.4120 0.0400 0.0109
vertex -0.4120 -0.2400 0.0109
vertex -0.4460 -0.2400 0.3492
endloop
endfacet
facet normal -0.9950 0.0000 -0.0998
outer loop
vertex -0.4120 0.0400 0.0109
vertex -0.4460 -0.2400 0.3492
vertex -0.4460 0.0400 0.3492
endloop
endfacet
facet normal -0.0998 0.0000 -0.9950
outer loop
vertex 0.0140 -0.2400 0.0508
vertex 0.4120 0.0400 0.0109
vertex 0.4120 -0.2400 0.0109
endloop
endfacet
facet normal -0.0998 0.0000 -0.9950
outer loop
vertex 0.0140 -0.2400 0.0508
vertex 0.0140 0.0400 0.0508
vertex 0.4120 0.0400 0.0109
endloop
endfacet
facet normal 0.0998 0.0000 0.9950
outer loop
vertex 0.0480 -0.2400 0.3891
vertex 0.4460 -0.2400 0.3492
vertex 0.4460 0.0400 0.3492
endloop
endfacet
facet normal 0.0998 0.0000 0.9950
outer loop
vertex 0.0480 -0.2400 0.3891
vertex 0.4460 0.0400 0.3492
vertex 0.0480 0.0400 0.3891
endloop
endfacet
facet normal 0.0000 -1.0000 0.0000
outer loop
vertex 0.0140 -0.2400 0.0508
vertex 0.4120 -0.2400 0.0109
vertex 0.4460 -0.2400 0.3492
endloop
endfacet
facet normal 0.0000 -1.0000 0.0000
outer loop
vertex 0.0140 -0.2400 0.0508
vertex 0.4460 -0.2400 0.3492
vertex 0.0480 -0.2400 0.3891
endloop
endfacet
facet normal 0.9950 0.0000 -0.0998
outer loop
vertex 0.4120 -0.2400 0.0109
vertex 0.4120 0.0400 0.0109
vertex 0.4460 0.0400 0.3492
endloop
endfacet
facet normal 0.9950 0.0000 -0.0998
outer loop
vertex 0.4120 -0.2400 0.0109
vertex 0.4460 0.0400 0.3492
vertex 0.4460 -0.2400 0.3492
endloop
endfacet
facet normal 0.0000 1.0000 0.0000
outer loop
vertex 0.4120 0.0400 0.0109
vertex 0.0140 0.0400 0.0508
vertex 0.0480 0.0400 0.3891
endloop
endfacet
facet normal 0.0000 1.0000 0.0000
outer loop
vertex 0.4120 0.0400 0.0109
vertex 0.0480 0.0400 0.3891
vertex 0.4460 0.0400 0.3492
endloop
endfacet
facet normal -0.9950 0.0000 0.0998
outer loop
vertex 0.0140 0.0400 0.0508
vertex 0.0140 -0.2400 0.0508
vertex 0.0480 -0.2400 0.3891
endloop
endfacet
facet normal -0.9950 0.0000 0.0998
outer loop
vertex 0.0140 0.0400 0.0508
vertex 0.0480 -0.2400 0.3891
vertex 0.0480 0.0400 0.3891
endloop
endfacet
facet normal 0.0799 0.0000 -0.9968
outer loop
vertex -0.3859 -0.8300 -0.1630
vertex -0.0470 -0.1100 -0.1359
vertex -0.0470 -0.8300 -0.1359
endloop
endfacet
facet normal 0.0799 0.0000 -0.9968
outer loop
vertex -0.3859 -0.8300 -0.1630
vertex -0.3859 -0.1100 -0.1630
vertex -0.0470 -0.1100 -0.1359
endloop
endfacet
facet normal -0.0799 0.0000 0.9968
outer loop
vertex -0.4130 -0.8300 0.1759
vertex -0.0741 -0.8300 0.2030
vertex -0.0741 -0.1100 0.2030
endloop
endfacet
facet normal -0.0799 0.0000 0.9968
outer loop
vertex -0.4130 -0.8300 0.1759
vertex -0.0741 -0.1100 0.2030
vertex -0.4130 -0.1100 0.1759
endloop
endfacet
facet normal 0.0000 -1.0000 0.0000
outer loop
vertex -0.3859 -0.8300 -0.1630
vertex -0.0470 -0.8300 -0.1359
vertex -0.0741 -0.8300 0.2030
endloop
endfacet
facet normal 0.0000 -1.0000 0.0000
outer loop
vertex -0.3859 -0.8300 -0.1630
vertex -0.0741 -0.8300 0.2030
vertex -0.4130 -0.8300 0.1759
endloop
endfacet
facet normal 0.9968 0.0000 0.0799
outer loop
vertex -0.0470 -0.8300 -0.1359
vertex -0.0470 -0.1100 -0.1359
vertex -0.0741 -0.1100 0.2030
endloop
endfacet
facet normal 0.9968 0.0000 0.0799
outer loop
vertex -0.0470 -0.8300 -0.1359
vertex -0.0741 -0.1100 0.2030
vertex -0.0741 -0.8300 0.2030
endloop
endfacet
facet normal 0.0000 1.0000 0.0000
outer loop
vertex -0.0470 -0.1100 -0.1359
vertex -0.3859 -0.1100 -0.1630
vertex -0.4130 -0.1100 0.1759
endloop
endfacet
facet normal 0.0000 1.0000 0.0000
outer loop
vertex -0.0470 -0.1100 -0.1359
vertex -0.4130 -0.1100 0.1759
vertex -0.0741 -0.1100 0.2030
endloop
endfacet
facet normal -0.9968 0.0000 -0.0799
outer loop
vertex -0.3859 -0.1100 -0.1630
vertex -0.3859 -0.8300 -0.1630
vertex -0.4130 -0.8300 0.1759
endloop
endfacet
facet normal -0.9968 0.0000 -0.0799
outer loop
vertex -0.3859 -0.1100 -0.1630
vertex -0.4130 -0.8300 0.1759
vertex -0.4130 -0.1100 0.1759
endloop
endfacet
facet normal -0.0799 0.0000 -0.9968
outer loop
vertex 0.0470 -0.8300 -0.1359
vertex 0.3859 -0.1100 -0.1630
vertex 0.3859 -0.8300 -0.1630
endloop
endfacet
facet normal -0.0799 0.0000 -0.9968
outer loop
vertex 0.0470 -0.8300 -0.1359
vertex 0.0470 -0.1100 -0.1359
vertex 0.3859 -0.1100 -0.1630
endloop
endfacet
facet normal 0.0799 0.0000 0.9968
outer loop
vertex 0.0741 -0.8300 0.2030
vertex 0.4130 -0.8300 0.1759
vertex 0.4130 -0.1100 0.1759
endloop
endfacet
facet normal 0.0799 0.0000 0.9968
outer loop
vertex 0.0741 -0.8300 0.2030
vertex 0.4130 -0.1100 0.1759
vertex 0.0741 -0.1100 0.2030
endloop
endfacet
facet normal 0.0000 -1.0000 0.0000
outer loop
vertex 0.0470 -0.8300 -0.1359
vertex 0.3859 -0.8300 -0.1630
vertex 0.4130 -0.8300 0.1759
endloop
endfacet
facet normal 0.0000 -1.0000 0.0000
outer loop
vertex 0.0470 -0.8300 -0.1359
vertex 0.4130 -0.8300 0.1759
vertex 0.0741 -0.8300 0.2030
endloop
endfacet
facet normal 0.9968 0.0000 -0.0799
outer loop
vertex 0.3859 -0.8300 -0.1630
vertex 0.3859 -0.1100 -0.1630
vertex 0.4130 -0.1100 0.1759
endloop
endfacet
facet normal 0.9968 0.0000 -0.0799
outer loop
vertex 0.3859 -0.8300 -0.1630
vertex 0.4130 -0.1100 0.1759
vertex 0.4130 -0.8300 0.1759
endloop
endfacet
facet normal 0.0000 1.0000 0.0000
outer loop
vertex 0.3859 -0.1100 -0.1630
vertex 0.0470 -0.1100 -0.1359
vertex 0.0741 -0.1100 0.2030
endloop
endfacet
facet normal 0.0000 1.0000 0.0000
outer loop
vertex 0.3859 -0.1100 -0.1630
vertex 0.0741 -0.1100 0.2030
vertex 0.4130 -0.1100 0.1759
endloop
endfacet
facet normal -0.9968 0.0000 0.0799
outer loop
vertex 0.0470 -0.1100 -0.1359
vertex 0.0470 -0.8300 -0.1359
vertex 0.0741 -0.8300 0.2030
endloop
endfacet
facet normal -0.9968 0.0000 0.0799
outer loop
vertex 0.0470 -0.1100 -0.1359
vertex 0.0741 -0.8300 0.2030
vertex 0.0741 -0.1100 0.2030
endloop
endfacet
facet normal 0.0000 0.0000 -1.0000
outer loop
vertex -0.4500 -1.0000 -0.1100
vertex -0.0100 -0.7600 -0.1100
vertex -0.0100 -1.0000 -0.1100
endloop
endfacet
facet normal 0.0000 0.0000 -1.0000
outer loop
vertex -0.4500 -1.0000 -0.1100
vertex -0.4500 -0.7600 -0.1100
vertex -0.0100 -0.7600 -0.1100
endloop
endfacet
facet normal 0.0000 0.0000 1.0000
outer loop
vertex -0.4500 -1.0000 0.4100
vertex -0.0100 -1.0000 0.4100
vertex -0.0100 -0.7600 0.4100
endloop
endfacet
facet normal 0.0000 0.0000 1.0000
outer loop
vertex -0.4500 -1.0000 0.4100
vertex -0.0100 -0.7600 0.4100
vertex -0.4500 -0.7600 0.4100
endloop
endfacet
facet normal 0.0000 -1.0000 0.0000
outer loop
vertex -0.4500 -1.0000 -0.1100
vertex -0.0100 -1.0000 -0.1100
vertex -0.0100 -1.0000 0.4100
endloop
endfacet
facet normal 0.0000 -1.0000 0.0000
outer loop
vertex -0.4500 -1.0000 -0.1100
vertex -0.0100 -1.0000 0.4100
vertex -0.4500 -1.0000 0.4100
endloop
endfacet
facet normal 1.0000 0.0000 0.0000
outer loop
vertex -0.0100 -1.0000 -0.1100
vertex -0.0100 -0.7600 -0.1100
vertex -0.0100 -0.7600 0.4100
endloop
endfacet
facet normal 1.0000 0.0000 0.0000
outer loop
vertex -0.0100 -1.0000 -0.1100
vertex -0.0100 -0.7600 0.4100
vertex -0.0100 -1.0000 0.4100
endloop
endfacet
facet normal 0.0000 1.0000 0.0000
outer loop
vertex -0.0100 -0.7600 -0.1100
vertex -0.4500 -0.7600 -0.1100
vertex -0.4500 -0.7600 0.4100
endloop
endfacet
facet normal 0.0000 1.0000 0.0000
outer loop
vertex -0.0100 -0.7600 -0.1100
vertex -0.4500 -0.7600 0.4100
vertex -0.0100 -0.7600 0.4100
endloop
endfacet
facet normal -1.0000 0.0000 0.0000
outer loop
vertex -0.4500 -0.7600 -0.1100
vertex -0.4500 -1.0000 -0.1100
vertex -0.4500 -1.0000 0.4100
endloop
endfacet
facet normal -1.0000 0.0000 0.0000
outer loop
vertex -0.4500 -0.7600 -0.1100
vertex -0.4500 -1.0000 0.4100
vertex -0.4500 -0.7600 0.4100
endloop
endfacet
facet normal 0.0000 0.0000 -1.0000
outer loop
vertex 0.0100 -1.0000 -0.1100
vertex 0.4500 -0.7600 -0.1100
vertex 0.4500 -1.0000 -0.1100
endloop
endfacet
facet normal 0.0000 0.0000 -1.0000
outer loop
vertex 0.0100 -1.0000 -0.1100
vertex 0.0100 -0.7600 -0.1100
vertex 0.4500 -0.7600 -0.1100
endloop
endfacet
facet normal 0.0000 0.0000 1.0000
outer loop
vertex 0.0100 -1.0000 0.4100
vertex 0.4500 -1.0000 0.4100
vertex 0.4500 -0.7600 0.4100
endloop
endfacet
facet normal 0.0000 0.0000 1.0000
outer loop
vertex 0.0100 -1.0000 0.4100
vertex 0.4500 -0.7600 0.4100
vertex 0.0100 -0.7600 0.4100
endloop
endfacet
facet normal 0.0000 -1.0000 0.0000
outer loop
vertex 0.0100 -1.0000 -0.1100
vertex 0.4500 -1.0000 -0.1100
vertex 0.4500 -1.0000 0.4100
endloop
endfacet
facet normal 0.0000 -1.0000 0.0000
outer loop
vertex 0.0100 -1.0000 -0.1100
vertex 0.4500 -1.0000 0.4100
vertex 0.0100 -1.0000 0.4100
endloop
endfacet
facet normal 1.0000 0.0000 0.0000
outer loop
vertex 0.4500 -1.0000 -0.1100
vertex 0.4500 -0.7600 -0.1100
vertex 0.4500 -0.7600 0.4100
endloop
endfacet
facet normal 1.0000 0.0000 0.0000
outer loop
vertex 0.4500 -1.0000 -0.1100
vertex 0.4500 -0.7600 0.4100
vertex 0.4500 -1.0000 0.4100
endloop
endfacet
facet normal 0.0000 1.0000 0.0000
outer loop
vertex 0.4500 -0.7600 -0.1100
vertex 0.0100 -0.7600 -0.1100
vertex 0.0100 -0.7600 0.4100
endloop
endfacet
facet normal 0.0000 1.0000 0.0000
outer loop
vertex 0.4500 -0.7600 -0.1100
vertex 0.0100 -0.7600 0.4100
vertex 0.4500 -0.7600 0.4100
endloop
endfacet
facet normal -1.0000 0.0000 0.0000
outer loop
vertex 0.0100 -0.7600 -0.1100
vertex 0.0100 -1.0000 -0.1100
vertex 0.0100 -1.0000 0.4100
endloop
endfacet
facet normal -1.0000 0.0000 0.0000
outer loop
vertex 0.0100 -0.7600 -0.1100
vertex 0.0100 -1.0000 0.4100
vertex 0.0100 -0.7600 0.4100
endloop
endfacet
facet normal 0.0000 0.0000 -1.0000
outer loop
vertex -0.6215 0.4526 -0.1300
vertex -0.3185 0.9274 -0.1300
vertex -0.4677 0.4084 -0.1300
endloop
endfacet
facet normal 0.0000 0.0000 -1.0000
outer loop
vertex -0.6215 0.4526 -0.1300
vertex -0.4723 0.9716 -0.1300
vertex -0.3185 0.9274 -0.1300
endloop
endfacet
facet normal 0.0000 0.0000 1.0000
outer loop
vertex -0.6215 0.4526 0.2100
vertex -0.4677 0.4084 0.2100
vertex -0.3185 0.9274 0.2100
endloop
endfacet
facet normal 0.0000 0.0000 1.0000
outer loop
vertex -0.6215 0.4526 0.2100
vertex -0.3185 0.9274 0.2100
vertex -0.4723 0.9716 0.2100
endloop
endfacet
facet normal -0.2764 -0.9611 0.0000
outer loop
vertex -0.6215 0.4526 -0.1300
vertex -0.4677 0.4084 -0.1300
vertex -0.4677 0.4084 0.2100
endloop
endfacet
facet normal -0.2764 -0.9611 0.0000
outer loop
vertex -0.6215 0.4526 -0.1300
vertex -0.4677 0.4084 0.2100
vertex -0.6215 0.4526 0.2100
endloop
endfacet
facet normal 0.9611 -0.2764 0.0000
outer loop
vertex -0.4677 0.4084 -0.1300
vertex -0.3185 0.9274 -0.1300
vertex -0.3185 0.9274 0.2100
endloop
endfacet
facet normal 0.9611 -0.2764 0.0000
outer loop
vertex -0.4677 0.4084 -0.1300
vertex -0.3185 0.9274 0.2100
vertex -0.4677 0.4084 0.2100
endloop
endfacet
facet normal 0.2764 0.9611 0.0000
outer loop
vertex -0.3185 0.9274 -0.1300
vertex -0.4723 0.9716 -0.1300
vertex -0.4723 0.9716 0.2100
endloop
endfacet
facet normal 0.2764 0.9611 0.0000
outer loop
vertex -0.3185 0.9274 -0.1300
vertex -0.4723 0.9716 0.2100
vertex -0.3185 0.9274 0.2100
endloop
endfacet
facet normal -0.9611 0.2764 0.0000
outer loop
vertex -0.4723 0.9716 -0.1300
vertex -0.6215 0.4526 -0.1300
vertex -0.6215 0.4526 0.2100
endloop
endfacet
facet normal -0.9611 0.2764 0.0000
outer loop
vertex -0.4723 0.9716 -0.1300
vertex -0.6215 0.4526 0.2100
vertex -0.4723 0.9716 0.2100
endloop
endfacet
facet normal 0.0000 0.0000 -1.0000
outer loop
vertex 0.4677 0.4084 -0.1300
vertex 0.4723 0.9716 -0.1300
vertex 0.6215 0.4526 -0.1300
endloop
endfacet
facet normal 0.0000 0.0000 -1.0000
outer loop
vertex 0.4677 0.4084 -0.1300
vertex 0.3185 0.9274 -0.1300
vertex 0.4723 0.9716 -0.1300
endloop
endfacet
facet normal 0.0000 0.0000 1.0000
outer loop
vertex 0.4677 0.4084 0.2100
vertex 0.6215 0.4526 0.2100
vertex 0.4723 0.9716 0.2100
endloop
endfacet
facet normal 0.0000 0.0000 1.0000
outer loop
vertex 0.4677 0.4084 0.2100
vertex 0.4723 0.9716 0.2100
vertex 0.3185 0.9274 0.2100
endloop
endfacet
facet normal 0.2764 -0.9611 0.0000
outer loop
vertex 0.4677 0.4084 -0.1300
vertex 0.6215 0.4526 -0.1300
vertex 0.6215 0.4526 0.2100
endloop
endfacet
facet normal 0.2764 -0.9611 0.0000
outer loop
vertex 0.4677 0.4084 -0.1300
vertex 0.6215 0.4526 0.2100
vertex 0.4677 0.4084 0.2100
endloop
endfacet
facet normal 0.9611 0.2764 0.0000
outer loop
vertex 0.6215 0.4526 -0.1300
vertex 0.4723 0.9716 -0.1300
vertex 0.4723 0.9716 0.2100
endloop
endfacet
facet normal 0.9611 0.2764 0.0000
outer loop
vertex 0.6215 0.4526 -0.1300
vertex 0.4723 0.9716 0.2100
vertex 0.6215 0.4526 0.2100
endloop
endfacet
facet normal -0.2764 0.9611 0.0000
outer loop
vertex 0.4723 0.9716 -0.1300
vertex 0.3185 0.9274 -0.1300
vertex 0.3185 0.9274 0.2100
endloop
endfacet
facet normal -0.2764 0.9611 0.0000
outer loop
vertex 0.4723 0.9716 -0.1300
vertex 0.3185 0.9274 0.2100
vertex 0.4723 0.9716 0.2100
endloop
endfacet
facet normal -0.9611 -0.2764 0.0000
outer loop
vertex 0.3185 0.9274 -0.1300
vertex 0.4677 0.4084 -0.1300
vertex 0.4677 0.4084 0.2100
endloop
endfacet
facet normal -0.9611 -0.2764 0.0000
outer loop
vertex 0.3185 0.9274 -0.1300
vertex 0.4677 0.4084 0.2100
vertex 0.3185 0.9274 0.2100
endloop
endfacet
facet normal 0.0149 0.1487 -0.9888
outer loop
vertex -0.3820 0.9833 -0.4649
vertex -0.2153 1.4435 -0.3931
vertex -0.2626 0.9713 -0.4649
endloop
endfacet
facet normal 0.0149 0.1487 -0.9888
outer loop
vertex -0.3820 0.9833 -0.4649
vertex -0.3347 1.4555 -0.3931
vertex -0.2153 1.4435 -0.3931
endloop
endfacet
facet normal -0.0149 -0.1487 0.9888
outer loop
vertex -0.3847 0.9565 -0.2869
vertex -0.2653 0.9445 -0.2869
vertex -0.2180 1.4167 -0.2151
endloop
endfacet
facet normal -0.0149 -0.1487 0.9888
outer loop
vertex -0.3847 0.9565 -0.2869
vertex -0.2180 1.4167 -0.2151
vertex -0.3374 1.4287 -0.2151
endloop
endfacet
facet normal -0.0987 -0.9838 -0.1494
outer loop
vertex -0.3820 0.9833 -0.4649
vertex -0.2626 0.9713 -0.4649
vertex -0.2653 0.9445 -0.2869
endloop
endfacet
facet normal -0.0987 -0.9838 -0.1494
outer loop
vertex -0.3820 0.9833 -0.4649
vertex -0.2653 0.9445 -0.2869
vertex -0.3847 0.9565 -0.2869
endloop
endfacet
facet normal 0.9950 -0.0998 0.0000
outer loop
vertex -0.2626 0.9713 -0.4649
vertex -0.2153 1.4435 -0.3931
vertex -0.2180 1.4167 -0.2151
endloop
endfacet
facet normal 0.9950 -0.0998 -0.0000
outer loop
vertex -0.2626 0.9713 -0.4649
vertex -0.2180 1.4167 -0.2151
vertex -0.2653 0.9445 -0.2869
endloop
endfacet
facet normal 0.0987 0.9838 0.1494
outer loop
vertex -0.2153 1.4435 -0.3931
vertex -0.3347 1.4555 -0.3931
vertex -0.3374 1.4287 -0.2151
endloop
endfacet
facet normal 0.0987 0.9838 0.1494
outer loop
vertex -0.2153 1.4435 -0.3931
vertex -0.3374 1.4287 -0.2151
vertex -0.2180 1.4167 -0.2151
endloop
endfacet
facet normal -0.9950 0.0998 0.0000
outer loop
vertex -0.3347 1.4555 -0.3931
vertex -0.3820 0.9833 -0.4649
vertex -0.3847 0.9565 -0.2869
endloop
endfacet
facet normal -0.9950 0.0998 0.0000
outer loop
vertex -0.3347 1.4555 -0.3931
vertex -0.3847 0.9565 -0.2869
vertex -0.3374 1.4287 -0.2151
endloop
endfacet
facet normal 0.0149 -0.1487 -0.9888
outer loop
vertex 0.2653 0.9445 -0.3931
vertex 0.3374 1.4287 -0.4649
vertex 0.3847 0.9565 -0.3931
endloop
endfacet
facet normal 0.0149 -0.1487 -0.9888
outer loop
vertex 0.2653 0.9445 -0.3931
vertex 0.2180 1.4167 -0.4649
vertex 0.3374 1.4287 -0.4649
endloop
endfacet
facet normal -0.0149 0.1487 0.9888
outer loop
vertex 0.2626 0.9713 -0.2151
vertex 0.3820 0.9833 -0.2151
vertex 0.3347 1.4555 -0.2869
endloop
endfacet
facet normal -0.0149 0.1487 0.9888
outer loop
vertex 0.2626 0.9713 -0.2151
vertex 0.3347 1.4555 -0.2869
vertex 0.2153 1.4435 -0.2869
endloop
endfacet
facet normal 0.0987 -0.9838 0.1494
outer loop
vertex 0.2653 0.9445 -0.3931
vertex 0.3847 0.9565 -0.3931
vertex 0.3820 0.9833 -0.2151
endloop
endfacet
facet normal 0.0987 -0.9838 0.1494
outer loop
vertex 0.2653 0.9445 -0.3931
vertex 0.3820 0.9833 -0.2151
vertex 0.2626 0.9713 -0.2151
endloop
endfacet
facet normal 0.9950 0.0998 -0.0000
outer loop
vertex 0.3847 0.9565 -0.3931
vertex 0.3374 1.4287 -0.4649
vertex 0.3347 1.4555 -0.2869
endloop
endfacet
facet normal 0.9950 0.0998 -0.0000
outer loop
vertex 0.3847 0.9565 -0.3931
vertex 0.3347 1.4555 -0.2869
vertex 0.3820 0.9833 -0.2151
endloop
endfacet
facet normal -0.0987 0.9838 -0.1494
outer loop
vertex 0.3374 1.4287 -0.4649
vertex 0.2180 1.4167 -0.4649
vertex 0.2153 1.4435 -0.2869
endloop
endfacet
facet normal -0.0987 0.9838 -0.1494
outer loop
vertex 0.3374 1.4287 -0.4649
vertex 0.2153 1.4435 -0.2869
vertex 0.3347 1.4555 -0.2869
endloop
endfacet
facet normal -0.9950 -0.0998 0.0000
outer loop
vertex 0.2180 1.4167 -0.4649
vertex 0.2653 0.9445 -0.3931
vertex 0.2626 0.9713 -0.2151
endloop
endfacet
facet normal -0.9950 -0.0998 -0.0000
outer loop
vertex 0.2180 1.4167 -0.4649
vertex 0.2626 0.9713 -0.2151
vertex 0.2153 1.4435 -0.2869
endloop
endfacet
facet normal 0.0000 0.0000 -1.0000
outer loop
vertex -0.4229 1.6692 -0.4000
vertex -0.2571 2.2308 -0.4000
vertex -0.3438 1.6573 -0.4000
endloop
endfacet
facet normal 0.0000 0.0000 -1.0000
outer loop
vertex -0.4229 1.6692 -0.4000
vertex -0.3362 2.2427 -0.4000
vertex -0.2571 2.2308 -0.4000
endloop
endfacet
facet normal 0.0000 0.0000 1.0000
outer loop
vertex -0.4229 1.6692 -0.3200
vertex -0.3438 1.6573 -0.3200
vertex -0.2571 2.2308 -0.3200
endloop
endfacet
facet normal 0.0000 0.0000 1.0000
outer loop
vertex -0.4229 1.6692 -0.3200
vertex -0.2571 2.2308 -0.3200
vertex -0.3362 2.2427 -0.3200
endloop
endfacet
facet normal -0.1494 -0.9888 0.0000
outer loop
vertex -0.4229 1.6692 -0.4000
vertex -0.3438 1.6573 -0.4000
vertex -0.3438 1.6573 -0.3200
endloop
endfacet
facet normal -0.1494 -0.9888 0.0000
outer loop
vertex -0.4229 1.6692 -0.4000
vertex -0.3438 1.6573 -0.3200
vertex -0.4229 1.6692 -0.3200
endloop
endfacet
facet normal 0.9888 -0.1494 0.0000
outer loop
vertex -0.3438 1.6573 -0.4000
vertex -0.2571 2.2308 -0.4000
vertex -0.2571 2.2308 -0.3200
endloop
endfacet
facet normal 0.9888 -0.1494 0.0000
outer loop
vertex -0.3438 1.6573 -0.4000
vertex -0.2571 2.2308 -0.3200
vertex -0.3438 1.6573 -0.3200
endloop
endfacet
facet normal 0.1494 0.9888 0.0000
outer loop
vertex -0.2571 2.2308 -0.4000
vertex -0.3362 2.2427 -0.4000
vertex -0.3362 2.2427 -0.3200
endloop
endfacet
facet normal 0.1494 0.9888 0.0000
outer loop
vertex -0.2571 2.2308 -0.4000
vertex -0.3362 2.2427 -0.3200
vertex -0.2571 2.2308 -0.3200
endloop
endfacet
facet normal -0.9888 0.1494 0.0000
outer loop
vertex -0.3362 2.2427 -0.4000
vertex -0.4229 1.6692 -0.4000
vertex -0.4229 1.6692 -0.3200
endloop
endfacet
facet normal -0.9888 0.1494 0.0000
outer loop
vertex -0.3362 2.2427 -0.4000
vertex -0.4229 1.6692 -0.3200
vertex -0.3362 2.2427 -0.3200
endloop
endfacet
facet normal 0.0000 0.0000 -1.0000
outer loop
vertex 0.3438 1.6573 -0.4000
vertex 0.3362 2.2427 -0.4000
vertex 0.4229 1.6692 -0.4000
endloop
endfacet
facet normal 0.0000 0.0000 -1.0000
outer loop
vertex 0.3438 1.6573 -0.4000
vertex 0.2571 2.2308 -0.4000
vertex 0.3362 2.2427 -0.4000
endloop
endfacet
facet normal 0.0000 0.0000 1.0000
outer loop
vertex 0.3438 1.6573 -0.3200
vertex 0.4229 1.6692 -0.3200
vertex 0.3362 2.2427 -0.3200
endloop
endfacet
facet normal 0.0000 0.0000 1.0000
outer loop
vertex 0.3438 1.6573 -0.3200
vertex 0.3362 2.2427 -0.3200
vertex 0.2571 2.2308 -0.3200
endloop
endfacet
facet normal 0.1494 -0.9888 0.0000
outer loop
vertex 0.3438 1.6573 -0.4000
vertex 0.4229 1.6692 -0.4000
vertex 0.4229 1.6692 -0.3200
endloop
endfacet
facet normal 0.1494 -0.9888 0.0000
outer loop
vertex 0.3438 1.6573 -0.4000
vertex 0.4229 1.6692 -0.3200
vertex 0.3438 1.6573 -0.3200
endloop
endfacet
facet normal 0.9888 0.1494 0.0000
outer loop
vertex 0.4229 1.6692 -0.4000
vertex 0.3362 2.2427 -0.4000
vertex 0.3362 2.2427 -0.3200
endloop
endfacet
facet normal 0.9888 0.1494 0.0000
outer loop
vertex 0.4229 1.6692 -0.4000
vertex 0.3362 2.2427 -0.3200
vertex 0.4229 1.6692 -0.3200
endloop
endfacet
facet normal -0.1494 0.9888 0.0000
outer loop
vertex 0.3362 2.2427 -0.4000
vertex 0.2571 2.2308 -0.4000
vertex 0.2571 2.2308 -0.3200
endloop
endfacet
facet normal -0.1494 0.9888 0.0000
outer loop
vertex 0.3362 2.2427 -0.4000
vertex 0.2571 2.2308 -0.3200
vertex 0.3362 2.2427 -0.3200
endloop
endfacet
facet normal -0.9888 -0.1494 0.0000
outer loop
vertex 0.2571 2.2308 -0.4000
vertex 0.3438 1.6573 -0.4000
vertex 0.3438 1.6573 -0.3200
endloop
endfacet
facet normal -0.9888 -0.1494 0.0000
outer loop
vertex 0.2571 2.2308 -0.4000
vertex 0.3438 1.6573 -0.3200
vertex 0.2571 2.2308 -0.3200
endloop
endfacet
facet normal 0.0000 0.0000 -1.0000
outer loop
vertex -0.2800 2.5300 -0.2200
vertex 0.2800 3.1900 -0.2200
vertex 0.2800 2.5300 -0.2200
endloop
endfacet
facet normal 0.0000 0.0000 -1.0000
outer loop
vertex -0.2800 2.5300 -0.2200
vertex -0.2800 3.1900 -0.2200
vertex 0.2800 3.1900 -0.2200
endloop
endfacet
facet normal 0.0000 0.0000 1.0000
outer loop
vertex -0.2800 2.5300 0.3400
vertex 0.2800 2.5300 0.3400
vertex 0.2800 3.1900 0.3400
endloop
endfacet
facet normal 0.0000 0.0000 1.0000
outer loop
vertex -0.2800 2.5300 0.3400
vertex 0.2800 3.1900 0.3400
vertex -0.2800 3.1900 0.3400
endloop
endfacet
facet normal 0.0000 -1.0000 0.0000
outer loop
vertex -0.2800 2.5300 -0.2200
vertex 0.2800 2.5300 -0.2200
vertex 0.2800 2.5300 0.3400
endloop
endfacet
facet normal 0.0000 -1.0000 0.0000
outer loop
vertex -0.2800 2.5300 -0.2200
vertex 0.2800 2.5300 0.3400
vertex -0.2800 2.5300 0.3400
endloop
endfacet
facet normal 1.0000 0.0000 0.0000
outer loop
vertex 0.2800 2.5300 -0.2200
vertex 0.2800 3.1900 -0.2200
vertex 0.2800 3.1900 0.3400
endloop
endfacet
facet normal 1.0000 0.0000 0.0000
outer loop
vertex 0.2800 2.5300 -0.2200
vertex 0.2800 3.1900 0.3400
vertex 0.2800 2.5300 0.3400
endloop
endfacet
facet normal 0.0000 1.0000 0.0000
outer loop
vertex 0.2800 3.1900 -0.2200
vertex -0.2800 3.1900 -0.2200
vertex -0.2800 3.1900 0.3400
endloop
endfacet
facet normal 0.0000 1.0000 0.0000
outer loop
vertex 0.2800 3.1900 -0.2200
vertex -0.2800 3.1900 0.3400
vertex 0.2800 3.1900 0.3400
endloop
endfacet
facet normal -1.0000 0.0000 0.0000
outer loop
vertex -0.2800 3.1900 -0.2200
vertex -0.2800 2.5300 -0.2200
vertex -0.2800 2.5300 0.3400
endloop
endfacet
facet normal -1.0000 0.0000 0.0000
outer loop
vertex -0.2800 3.1900 -0.2200
vertex -0.2800 2.5300 0.3400
vertex -0.2800 3.1900 0.3400
endloop
endfacet
facet normal 0.0000 0.0000 -1.0000
outer loop
vertex -0.2350 2.5650 0.1950
vertex 0.2350 3.0950 0.1950
vertex 0.2350 2.5650 0.1950
endloop
endfacet
facet normal 0.0000 0.0000 -1.0000
outer loop
vertex -0.2350 2.5650 0.1950
vertex -0.2350 3.0950 0.1950
vertex 0.2350 3.0950 0.1950
endloop
endfacet
facet normal 0.0000 0.0000 1.0000
outer loop
vertex -0.2350 2.5650 0.3750
vertex 0.2350 2.5650 0.3750
vertex 0.2350 3.0950 0.3750
endloop
endfacet
facet normal 0.0000 0.0000 1.0000
outer loop
vertex -0.2350 2.5650 0.3750
vertex 0.2350 3.0950 0.3750
vertex -0.2350 3.0950 0.3750
endloop
endfacet
facet normal 0.0000 -1.0000 0.0000
outer loop
vertex -0.2350 2.5650 0.1950
vertex 0.2350 2.5650 0.1950
vertex 0.2350 2.5650 0.3750
endloop
endfacet
facet normal 0.0000 -1.0000 0.0000
outer loop
vertex -0.2350 2.5650 0.1950
vertex 0.2350 2.5650 0.3750
vertex -0.2350 2.5650 0.3750
endloop
endfacet
facet normal 1.0000 0.0000 0.0000
outer loop
vertex 0.2350 2.5650 0.1950
vertex 0.2350 3.0950 0.1950
vertex 0.2350 3.0950 0.3750
endloop
endfacet
facet normal 1.0000 0.0000 0.0000
outer loop
vertex 0.2350 2.5650 0.1950
vertex 0.2350 3.0950 0.3750
vertex 0.2350 2.5650 0.3750
endloop
endfacet
facet normal 0.0000 1.0000 0.0000
outer loop
vertex 0.2350 3.0950 0.1950
vertex -0.2350 3.0950 0.1950
vertex -0.2350 3.0950 0.3750
endloop
endfacet
facet normal 0.0000 1.0000 0.0000
outer loop
vertex 0.2350 3.0950 0.1950
vertex -0.2350 3.0950 0.3750
vertex 0.2350 3.0950 0.3750
endloop
endfacet
facet normal -1.0000 0.0000 0.0000
outer loop
vertex -0.2350 3.0950 0.1950
vertex -0.2350 2.5650 0.1950
vertex -0.2350 2.5650 0.3750
endloop
endfacet
facet normal -1.0000 0.0000 0.0000
outer loop
vertex -0.2350 3.0950 0.1950
vertex -0.2350 2.5650 0.3750
vertex -0.2350 3.0950 0.3750
endloop
endfacet
facet normal 0.0000 0.0000 -1.0000
outer loop
vertex -0.2200 2.5000 0.0000
vertex 0.2200 2.8600 0.0000
vertex 0.2200 2.5000 0.0000
endloop
endfacet
facet normal 0.0000 0.0000 -1.0000
outer loop
vertex -0.2200 2.5000 0.0000
vertex -0.2200 2.8600 0.0000
vertex 0.2200 2.8600 0.0000
endloop
endfacet
facet normal 0.0000 0.0000 1.0000
outer loop
vertex -0.2200 2.5000 0.3600
vertex 0.2200 2.5000 0.3600
vertex 0.2200 2.8600 0.3600
endloop
endfacet
facet normal 0.0000 0.0000 1.0000
outer loop
vertex -0.2200 2.5000 0.3600
vertex 0.2200 2.8600 0.3600
vertex -0.2200 2.8600 0.3600
endloop
endfacet
facet normal 0.0000 -1.0000 0.0000
outer loop
vertex -0.2200 2.5000 0.0000
vertex 0.2200 2.5000 0.0000
vertex 0.2200 2.5000 0.3600
endloop
endfacet
facet normal 0.0000 -1.0000 0.0000
outer loop
vertex -0.2200 2.5000 0.0000
vertex 0.2200 2.5000 0.3600
vertex -0.2200 2.5000 0.3600
endloop
endfacet
facet normal 1.0000 0.0000 0.0000
outer loop
vertex 0.2200 2.5000 0.0000
vertex 0.2200 2.8600 0.0000
vertex 0.2200 2.8600 0.3600
endloop
endfacet
facet normal 1.0000 0.0000 0.0000
outer loop
vertex 0.2200 2.5000 0.0000
vertex 0.2200 2.8600 0.3600
vertex 0.2200 2.5000 0.3600
endloop
endfacet
facet normal 0.0000 1.0000 0.0000
outer loop
vertex 0.2200 2.8600 0.0000
vertex -0.2200 2.8600 0.0000
vertex -0.2200 2.8600 0.3600
endloop
endfacet
facet normal 0.0000 1.0000 0.0000
outer loop
vertex 0.2200 2.8600 0.0000
vertex -0.2200 2.8600 0.3600
vertex 0.2200 2.8600 0.3600
endloop
endfacet
facet normal -1.0000 0.0000 0.0000
outer loop
vertex -0.2200 2.8600 0.0000
vertex -0.2200 2.5000 0.0000
vertex -0.2200 2.5000 0.3600
endloop
endfacet
facet normal -1.0000 0.0000 0.0000
outer loop
vertex -0.2200 2.8600 0.0000
vertex -0.2200 2.5000 0.3600
vertex -0.2200 2.8600 0.3600
endloop
endfacet
facet normal 0.0000 0.0000 -1.0000
outer loop
vertex -0.3400 2.7300 -0.0400
vertex -0.2000 2.9500 -0.0400
vertex -0.2000 2.7300 -0.0400
endloop
endfacet
facet normal 0.0000 0.0000 -1.0000
outer loop
vertex -0.3400 2.7300 -0.0400
vertex -0.3400 2.9500 -0.0400
vertex -0.2000 2.9500 -0.0400
endloop
endfacet
facet normal 0.0000 0.0000 1.0000
outer loop
vertex -0.3400 2.7300 0.1000
vertex -0.2000 2.7300 0.1000
vertex -0.2000 2.9500 0.1000
endloop
endfacet
facet normal 0.0000 0.0000 1.0000
outer loop
vertex -0.3400 2.7300 0.1000
vertex -0.2000 2.9500 0.1000
vertex -0.3400 2.9500 0.1000
endloop
endfacet
facet normal 0.0000 -1.0000 0.0000
outer loop
vertex -0.3400 2.7300 -0.0400
vertex -0.2000 2.7300 -0.0400
vertex -0.2000 2.7300 0.1000
endloop
endfacet
facet normal 0.0000 -1.0000 0.0000
outer loop
vertex -0.3400 2.7300 -0.0400
vertex -0.2000 2.7300 0.1000
vertex -0.3400 2.7300 0.1000
endloop
endfacet
facet normal 1.0000 0.0000 0.0000
outer loop
vertex -0.2000 2.7300 -0.0400
vertex -0.2000 2.9500 -0.0400
vertex -0.2000 2.9500 0.1000
endloop
endfacet
facet normal 1.0000 0.0000 0.0000
outer loop
vertex -0.2000 2.7300 -0.0400
vertex -0.2000 2.9500 0.1000
vertex -0.2000 2.7300 0.1000
endloop
endfacet
facet normal 0.0000 1.0000 0.0000
outer loop
vertex -0.2000 2.9500 -0.0400
vertex -0.3400 2.9500 -0.0400
vertex -0.3400 2.9500 0.1000
endloop
endfacet
facet normal 0.0000 1.0000 0.0000
outer loop
vertex -0.2000 2.9500 -0.0400
vertex -0.3400 2.9500 0.1000
vertex -0.2000 2.9500 0.1000
endloop
endfacet
facet normal -1.0000 0.0000 0.0000
outer loop
vertex -0.3400 2.9500 -0.0400
vertex -0.3400 2.7300 -0.0400
vertex -0.3400 2.7300 0.1000
endloop
endfacet
facet normal -1.0000 0.0000 0.0000
outer loop
vertex -0.3400 2.9500 -0.0400
vertex -0.3400 2.7300 0.1000
vertex -0.3400 2.9500 0.1000
endloop
endfacet
facet normal 0.0000 0.0000 -1.0000
outer loop
vertex 0.2000 2.7300 -0.0400
vertex 0.3400 2.9500 -0.0400
vertex 0.3400 2.7300 -0.0400
endloop
endfacet
facet normal 0.0000 0.0000 -1.0000
outer loop
vertex 0.2000 2.7300 -0.0400
vertex 0.2000 2.9500 -0.0400
vertex 0.3400 2.9500 -0.0400
endloop
endfacet
facet normal 0.0000 0.0000 1.0000
outer loop
vertex 0.2000 2.7300 0.1000
vertex 0.3400 2.7300 0.1000
vertex 0.3400 2.9500 0.1000
endloop
endfacet
facet normal 0.0000 0.0000 1.0000
outer loop
vertex 0.2000 2.7300 0.1000
vertex 0.3400 2.9500 0.1000
vertex 0.2000 2.9500 0.1000
endloop
endfacet
facet normal 0.0000 -1.0000 0.0000
outer loop
vertex 0.2000 2.7300 -0.0400
vertex 0.3400 2.7300 -0.0400
vertex 0.3400 2.7300 0.1000
endloop
endfacet
facet normal 0.0000 -1.0000 0.0000
outer loop
vertex 0.2000 2.7300 -0.0400
vertex 0.3400 2.7300 0.1000
vertex 0.2000 2.7300 0.1000
endloop
endfacet
facet normal 1.0000 0.0000 0.0000
outer loop
vertex 0.3400 2.7300 -0.0400
vertex 0.3400 2.9500 -0.0400
vertex 0.3400 2.9500 0.1000
endloop
endfacet
facet normal 1.0000 0.0000 0.0000
outer loop
vertex 0.3400 2.7300 -0.0400
vertex 0.3400 2.9500 0.1000
vertex 0.3400 2.7300 0.1000
endloop
endfacet
facet normal 0.0000 1.0000 0.0000
outer loop
vertex 0.3400 2.9500 -0.0400
vertex 0.2000 2.9500 -0.0400
vertex 0.2000 2.9500 0.1000
endloop
endfacet
facet normal 0.0000 1.0000 0.0000
outer loop
vertex 0.3400 2.9500 -0.0400
vertex 0.2000 2.9500 0.1000
vertex 0.3400 2.9500 0.1000
endloop
endfacet
facet normal -1.0000 0.0000 0.0000
outer loop
vertex 0.2000 2.9500 -0.0400
vertex 0.2000 2.7300 -0.0400
vertex 0.2000 2.7300 0.1000
endloop
endfacet
facet normal -1.0000 0.0000 0.0000
outer loop
vertex 0.2000 2.9500 -0.0400
vertex 0.2000 2.7300 0.1000
vertex 0.2000 2.9500 0.1000
endloop
endfacet
facet normal 0.0000 0.0000 -1.0000
outer loop
vertex -0.3100 2.8200 -0.2900
vertex 0.3100 3.3400 -0.2900
vertex 0.3100 2.8200 -0.2900
endloop
endfacet
facet normal 0.0000 0.0000 -1.0000
outer loop
vertex -0.3100 2.8200 -0.2900
vertex -0.3100 3.3400 -0.2900
vertex 0.3100 3.3400 -0.2900
endloop
endfacet
facet normal 0.0000 0.0000 1.0000
outer loop
vertex -0.3100 2.8200 0.3100
vertex 0.3100 2.8200 0.3100
vertex 0.3100 3.3400 0.3100
endloop
endfacet
facet normal 0.0000 0.0000 1.0000
outer loop
vertex -0.3100 2.8200 0.3100
vertex 0.3100 3.3400 0.3100
vertex -0.3100 3.3400 0.3100
endloop
endfacet
facet normal 0.0000 -1.0000 0.0000
outer loop
vertex -0.3100 2.8200 -0.2900
vertex 0.3100 2.8200 -0.2900
vertex 0.3100 2.8200 0.3100
endloop
endfacet
facet normal 0.0000 -1.0000 0.0000
outer loop
vertex -0.3100 2.8200 -0.2900
vertex 0.3100 2.8200 0.3100
vertex -0.3100 2.8200 0.3100
endloop
endfacet
facet normal 1.0000 0.0000 0.0000
outer loop
vertex 0.3100 2.8200 -0.2900
vertex 0.3100 3.3400 -0.2900
vertex 0.3100 3.3400 0.3100
endloop
endfacet
facet normal 1.0000 0.0000 0.0000
outer loop
vertex 0.3100 2.8200 -0.2900
vertex 0.3100 3.3400 0.3100
vertex 0.3100 2.8200 0.3100
endloop
endfacet
facet normal 0.0000 1.0000 0.0000
outer loop
vertex 0.3100 3.3400 -0.2900
vertex -0.3100 3.3400 -0.2900
vertex -0.3100 3.3400 0.3100
endloop
endfacet
facet normal 0.0000 1.0000 0.0000
outer loop
vertex 0.3100 3.3400 -0.2900
vertex -0.3100 3.3400 0.3100
vertex 0.3100 3.3400 0.3100
endloop
endfacet
facet normal -1.0000 0.0000 0.0000
outer loop
vertex -0.3100 3.3400 -0.2900
vertex -0.3100 2.8200 -0.2900
vertex -0.3100 2.8200 0.3100
endloop
endfacet
facet normal -1.0000 0.0000 0.0000
outer loop
vertex -0.3100 3.3400 -0.2900
vertex -0.3100 2.8200 0.3100
vertex -0.3100 3.3400 0.3100
endloop
endfacet
facet normal 0.1403 0.0937 -0.9857
outer loop
vertex -0.2250 3.0814 -0.0100
vertex 0.0183 3.1942 0.0354
vertex -0.0110 3.0380 0.0164
endloop
endfacet
facet normal 0.1403 0.0937 -0.9857
outer loop
vertex -0.2250 3.0814 -0.0100
vertex -0.1957 3.2376 0.0091
vertex 0.0183 3.1942 0.0354
endloop
endfacet
facet normal -0.1403 -0.0937 0.9857
outer loop
vertex -0.2783 3.0458 0.3646
vertex -0.0643 3.0024 0.3909
vertex -0.0350 3.1586 0.4100
endloop
endfacet
facet normal -0.1403 -0.0937 0.9857
outer loop
vertex -0.2783 3.0458 0.3646
vertex -0.0350 3.1586 0.4100
vertex -0.2490 3.2020 0.3836
endloop
endfacet
facet normal -0.1832 -0.9759 -0.1189
outer loop
vertex -0.2250 3.0814 -0.0100
vertex -0.0110 3.0380 0.0164
vertex -0.0643 3.0024 0.3909
endloop
endfacet
facet normal -0.1832 -0.9759 -0.1189
outer loop
vertex -0.2250 3.0814 -0.0100
vertex -0.0643 3.0024 0.3909
vertex -0.2783 3.0458 0.3646
endloop
endfacet
facet normal 0.9730 -0.1972 0.1197
outer loop
vertex -0.0110 3.0380 0.0164
vertex 0.0183 3.1942 0.0354
vertex -0.0350 3.1586 0.4100
endloop
endfacet
facet normal 0.9730 -0.1972 0.1197
outer loop
vertex -0.0110 3.0380 0.0164
vertex -0.0350 3.1586 0.4100
vertex -0.0643 3.0024 0.3909
endloop
endfacet
facet normal 0.1832 0.9759 0.1189
outer loop
vertex 0.0183 3.1942 0.0354
vertex -0.1957 3.2376 0.0091
vertex -0.2490 3.2020 0.3836
endloop
endfacet
facet normal 0.1832 0.9759 0.1189
outer loop
vertex 0.0183 3.1942 0.0354
vertex -0.2490 3.2020 0.3836
vertex -0.0350 3.1586 0.4100
endloop
endfacet
facet normal -0.9730 0.1972 -0.1197
outer loop
vertex -0.1957 3.2376 0.0091
vertex -0.2250 3.0814 -0.0100
vertex -0.2783 3.0458 0.3646
endloop
endfacet
facet normal -0.9730 0.1972 -0.1197
outer loop
vertex -0.1957 3.2376 0.0091
vertex -0.2783 3.0458 0.3646
vertex -0.2490 3.2020 0.3836
endloop
endfacet
facet normal -0.0836 -0.0964 -0.9918
outer loop
vertex 0.0021 3.0206 -0.0017
vertex 0.1895 3.2066 -0.0356
vertex 0.2174 3.0598 -0.0236
endloop
endfacet
facet normal -0.0836 -0.0964 -0.9918
outer loop
vertex 0.0021 3.0206 -0.0017
vertex -0.0259 3.1675 -0.0136
vertex 0.1895 3.2066 -0.0356
endloop
endfacet
facet normal 0.0836 0.0964 0.9918
outer loop
vertex 0.0305 3.0534 0.3356
vertex 0.2459 3.0925 0.3136
vertex 0.2179 3.2394 0.3017
endloop
endfacet
facet normal 0.0836 0.0964 0.9918
outer loop
vertex 0.0305 3.0534 0.3356
vertex 0.2179 3.2394 0.3017
vertex 0.0026 3.2002 0.3236
endloop
endfacet
facet normal 0.1863 -0.9793 0.0795
outer loop
vertex 0.0021 3.0206 -0.0017
vertex 0.2174 3.0598 -0.0236
vertex 0.2459 3.0925 0.3136
endloop
endfacet
facet normal 0.1863 -0.9793 0.0795
outer loop
vertex 0.0021 3.0206 -0.0017
vertex 0.2459 3.0925 0.3136
vertex 0.0305 3.0534 0.3356
endloop
endfacet
facet normal 0.9789 0.1781 -0.0998
outer loop
vertex 0.2174 3.0598 -0.0236
vertex 0.1895 3.2066 -0.0356
vertex 0.2179 3.2394 0.3017
endloop
endfacet
facet normal 0.9789 0.1781 -0.0998
outer loop
vertex 0.2174 3.0598 -0.0236
vertex 0.2179 3.2394 0.3017
vertex 0.2459 3.0925 0.3136
endloop
endfacet
facet normal -0.1863 0.9793 -0.0795
outer loop
vertex 0.1895 3.2066 -0.0356
vertex -0.0259 3.1675 -0.0136
vertex 0.0026 3.2002 0.3236
endloop
endfacet
facet normal -0.1863 0.9793 -0.0795
outer loop
vertex 0.1895 3.2066 -0.0356
vertex 0.0026 3.2002 0.3236
vertex 0.2179 3.2394 0.3017
endloop
endfacet
facet normal -0.9789 -0.1781 0.0998
outer loop
vertex -0.0259 3.1675 -0.0136
vertex 0.0021 3.0206 -0.0017
vertex 0.0305 3.0534 0.3356
endloop
endfacet
facet normal -0.9789 -0.1781 0.0998
outer loop
vertex -0.0259 3.1675 -0.0136
vertex 0.0305 3.0534 0.3356
vertex 0.0026 3.2002 0.3236
endloop
endfacet
facet normal 0.0000 0.0000 -1.0000
outer loop
vertex -0.2500 2.8500 -0.2600
vertex 0.2500 3.1500 -0.2600
vertex 0.2500 2.8500 -0.2600
endloop
endfacet
facet normal 0.0000 0.0000 -1.0000
outer loop
vertex -0.2500 2.8500 -0.2600
vertex -0.2500 3.1500 -0.2600
vertex 0.2500 3.1500 -0.2600
endloop
endfacet
facet normal 0.0000 0.0000 1.0000
outer loop
vertex -0.2500 2.8500 -0.0800
vertex 0.2500 2.8500 -0.0800
vertex 0.2500 3.1500 -0.0800
endloop
endfacet
facet normal 0.0000 0.0000 1.0000
outer loop
vertex -0.2500 2.8500 -0.0800
vertex 0.2500 3.1500 -0.0800
vertex -0.2500 3.1500 -0.0800
endloop
endfacet
facet normal 0.0000 -1.0000 0.0000
outer loop
vertex -0.2500 2.8500 -0.2600
vertex 0.2500 2.8500 -0.2600
vertex 0.2500 2.8500 -0.0800
endloop
endfacet
facet normal 0.0000 -1.0000 0.0000
outer loop
vertex -0.2500 2.8500 -0.2600
vertex 0.2500 2.8500 -0.0800
vertex -0.2500 2.8500 -0.0800
endloop
endfacet
facet normal 1.0000 0.0000 0.0000
outer loop
vertex 0.2500 2.8500 -0.2600
vertex 0.2500 3.1500 -0.2600
vertex 0.2500 3.1500 -0.0800
endloop
endfacet
facet normal 1.0000 0.0000 0.0000
outer loop
vertex 0.2500 2.8500 -0.2600
vertex 0.2500 3.1500 -0.0800
vertex 0.2500 2.8500 -0.0800
endloop
endfacet
facet normal 0.0000 1.0000 0.0000
outer loop
vertex 0.2500 3.1500 -0.2600
vertex -0.2500 3.1500 -0.2600
vertex -0.2500 3.1500 -0.0800
endloop
endfacet
facet normal 0.0000 1.0000 0.0000
outer loop
vertex 0.2500 3.1500 -0.2600
vertex -0.2500 3.1500 -0.0800
vertex 0.2500 3.1500 -0.0800
endloop
endfacet
facet normal -1.0000 0.0000 0.0000
outer loop
vertex -0.2500 3.1500 -0.2600
vertex -0.2500 2.8500 -0.2600
vertex -0.2500 2.8500 -0.0800
endloop
endfacet
facet normal -1.0000 0.0000 0.0000
outer loop
vertex -0.2500 3.1500 -0.2600
vertex -0.2500 2.8500 -0.0800
vertex -0.2500 3.1500 -0.0800
endloop
endfacet
facet normal 0.0000 0.0000 -1.0000
outer loop
vertex -0.2588 2.8052 0.1600
vertex -0.1412 3.0748 0.1600
vertex -0.1692 2.7962 0.1600
endloop
endfacet
facet normal 0.0000 0.0000 -1.0000
outer loop
vertex -0.2588 2.8052 0.1600
vertex -0.2308 3.0838 0.1600
vertex -0.1412 3.0748 0.1600
endloop
endfacet
facet normal 0.0000 0.0000 1.0000
outer loop
vertex -0.2588 2.8052 0.2600
vertex -0.1692 2.7962 0.2600
vertex -0.1412 3.0748 0.2600
endloop
endfacet
facet normal 0.0000 0.0000 1.0000
outer loop
vertex -0.2588 2.8052 0.2600
vertex -0.1412 3.0748 0.2600
vertex -0.2308 3.0838 0.2600
endloop
endfacet
facet normal -0.0998 -0.9950 0.0000
outer loop
vertex -0.2588 2.8052 0.1600
vertex -0.1692 2.7962 0.1600
vertex -0.1692 2.7962 0.2600
endloop
endfacet
facet normal -0.0998 -0.9950 0.0000
outer loop
vertex -0.2588 2.8052 0.1600
vertex -0.1692 2.7962 0.2600
vertex -0.2588 2.8052 0.2600
endloop
endfacet
facet normal 0.9950 -0.0998 0.0000
outer loop
vertex -0.1692 2.7962 0.1600
vertex -0.1412 3.0748 0.1600
vertex -0.1412 3.0748 0.2600
endloop
endfacet
facet normal 0.9950 -0.0998 0.0000
outer loop
vertex -0.1692 2.7962 0.1600
vertex -0.1412 3.0748 0.2600
vertex -0.1692 2.7962 0.2600
endloop
endfacet
facet normal 0.0998 0.9950 0.0000
outer loop
vertex -0.1412 3.0748 0.1600
vertex -0.2308 3.0838 0.1600
vertex -0.2308 3.0838 0.2600
endloop
endfacet
facet normal 0.0998 0.9950 0.0000
outer loop
vertex -0.1412 3.0748 0.1600
vertex -0.2308 3.0838 0.2600
vertex -0.1412 3.0748 0.2600
endloop
endfacet
facet normal -0.9950 0.0998 0.0000
outer loop
vertex -0.2308 3.0838 0.1600
vertex -0.2588 2.8052 0.1600
vertex -0.2588 2.8052 0.2600
endloop
endfacet
facet normal -0.9950 0.0998 0.0000
outer loop
vertex -0.2308 3.0838 0.1600
vertex -0.2588 2.8052 0.2600
vertex -0.2308 3.0838 0.2600
endloop
endfacet
facet normal 0.0000 0.0000 -1.0000
outer loop
vertex 0.1692 2.7962 0.1600
vertex 0.2308 3.0838 0.1600
vertex 0.2588 2.8052 0.1600
endloop
endfacet
facet normal 0.0000 0.0000 -1.0000
outer loop
vertex 0.1692 2.7962 0.1600
vertex 0.1412 3.0748 0.1600
vertex 0.2308 3.0838 0.1600
endloop
endfacet
facet normal 0.0000 0.0000 1.0000
outer loop
vertex 0.1692 2.7962 0.2600
vertex 0.2588 2.8052 0.2600
vertex 0.2308 3.0838 0.2600
endloop
endfacet
facet normal 0.0000 0.0000 1.0000
outer loop
vertex 0.1692 2.7962 0.2600
vertex 0.2308 3.0838 0.2600
vertex 0.1412 3.0748 0.2600
endloop
endfacet
facet normal 0.0998 -0.9950 0.0000
outer loop
vertex 0.1692 2.7962 0.1600
vertex 0.2588 2.8052 0.1600
vertex 0.2588 2.8052 0.2600
endloop
endfacet
facet normal 0.0998 -0.9950 0.0000
outer loop
vertex 0.1692 2.7962 0.1600
vertex 0.2588 2.8052 0.2600
vertex 0.1692 2.7962 0.2600
endloop
endfacet
facet normal 0.9950 0.0998 0.0000
outer loop
vertex 0.2588 2.8052 0.1600
vertex 0.2308 3.0838 0.1600
vertex 0.2308 3.0838 0.2600
endloop
endfacet
facet normal 0.9950 0.0998 0.0000
outer loop
vertex 0.2588 2.8052 0.1600
vertex 0.2308 3.0838 0.2600
vertex 0.2588 2.8052 0.2600
endloop
endfacet
facet normal -0.0998 0.9950 0.0000
outer loop
vertex 0.2308 3.0838 0.1600
vertex 0.1412 3.0748 0.1600
vertex 0.1412 3.0748 0.2600
endloop
endfacet
facet normal -0.0998 0.9950 0.0000
outer loop
vertex 0.2308 3.0838 0.1600
vertex 0.1412 3.0748 0.2600
vertex 0.2308 3.0838 0.2600
endloop
endfacet
facet normal -0.9950 -0.0998 0.0000
outer loop
vertex 0.1412 3.0748 0.1600
vertex 0.1692 2.7962 0.1600
vertex 0.1692 2.7962 0.2600
endloop
endfacet
facet normal -0.9950 -0.0998 0.0000
outer loop
vertex 0.1412 3.0748 0.1600
vertex 0.1692 2.7962 0.2600
vertex 0.1412 3.0748 0.2600
endloop
endfacet
facet normal 0.0000 0.0000 -1.0000
outer loop
vertex -0.1200 2.6200 0.2400
vertex 0.1200 2.7200 0.2400
vertex 0.1200 2.6200 0.2400
endloop
endfacet
facet normal 0.0000 0.0000 -1.0000
outer loop
vertex -0.1200 2.6200 0.2400
vertex -0.1200 2.7200 0.2400
vertex 0.1200 2.7200 0.2400
endloop
endfacet
facet normal 0.0000 0.0000 1.0000
outer loop
vertex -0.1200 2.6200 0.3200
vertex 0.1200 2.6200 0.3200
vertex 0.1200 2.7200 0.3200
endloop
endfacet
facet normal 0.0000 0.0000 1.0000
outer loop
vertex -0.1200 2.6200 0.3200
vertex 0.1200 2.7200 0.3200
vertex -0.1200 2.7200 0.3200
endloop
endfacet
facet normal 0.0000 -1.0000 0.0000
outer loop
vertex -0.1200 2.6200 0.2400
vertex 0.1200 2.6200 0.2400
vertex 0.1200 2.6200 0.3200
endloop
endfacet
facet normal 0.0000 -1.0000 0.0000
outer loop
vertex -0.1200 2.6200 0.2400
vertex 0.1200 2.6200 0.3200
vertex -0.1200 2.6200 0.3200
endloop
endfacet
facet normal 1.0000 0.0000 0.0000
outer loop
vertex 0.1200 2.6200 0.2400
vertex 0.1200 2.7200 0.2400
vertex 0.1200 2.7200 0.3200
endloop
endfacet
facet normal 1.0000 0.0000 0.0000
outer loop
vertex 0.1200 2.6200 0.2400
vertex 0.1200 2.7200 0.3200
vertex 0.1200 2.6200 0.3200
endloop
endfacet
facet normal 0.0000 1.0000 0.0000
outer loop
vertex 0.1200 2.7200 0.2400
vertex -0.1200 2.7200 0.2400
vertex -0.1200 2.7200 0.3200
endloop
endfacet
facet normal 0.0000 1.0000 0.0000
outer loop
vertex 0.1200 2.7200 0.2400
vertex -0.1200 2.7200 0.3200
vertex 0.1200 2.7200 0.3200
endloop
endfacet
facet normal -1.0000 0.0000 0.0000
outer loop
vertex -0.1200 2.7200 0.2400
vertex -0.1200 2.6200 0.2400
vertex -0.1200 2.6200 0.3200
endloop
endfacet
facet normal -1.0000 0.0000 0.0000
outer loop
vertex -0.1200 2.7200 0.2400
vertex -0.1200 2.6200 0.3200
vertex -0.1200 2.7200 0.3200
endloop
endfacet
facet normal 0.1149 0.1047 -0.9878
outer loop
vertex -0.3290 1.9190 -0.5298
vertex -0.1372 2.4735 -0.4487
vertex -0.2107 1.9024 -0.5178
endloop
endfacet
facet normal 0.1149 0.1047 -0.9878
outer loop
vertex -0.3290 1.9190 -0.5298
vertex -0.2555 2.4902 -0.4607
vertex -0.1372 2.4735 -0.4487
endloop
endfacet
facet normal -0.1149 -0.1047 0.9878
outer loop
vertex -0.3428 1.9065 -0.4113
vertex -0.2245 1.8898 -0.3993
vertex -0.1510 2.4610 -0.3302
endloop
endfacet
facet normal -0.1149 -0.1047 0.9878
outer loop
vertex -0.3428 1.9065 -0.4113
vertex -0.1510 2.4610 -0.3302
vertex -0.2693 2.4776 -0.3422
endloop
endfacet
facet normal -0.1267 -0.9848 -0.1191
outer loop
vertex -0.3290 1.9190 -0.5298
vertex -0.2107 1.9024 -0.5178
vertex -0.2245 1.8898 -0.3993
endloop
endfacet
facet normal -0.1267 -0.9848 -0.1191
outer loop
vertex -0.3290 1.9190 -0.5298
vertex -0.2245 1.8898 -0.3993
vertex -0.3428 1.9065 -0.4113
endloop
endfacet
facet normal 0.9853 -0.1388 0.0998
outer loop
vertex -0.2107 1.9024 -0.5178
vertex -0.1372 2.4735 -0.4487
vertex -0.1510 2.4610 -0.3302
endloop
endfacet
facet normal 0.9853 -0.1388 0.0998
outer loop
vertex -0.2107 1.9024 -0.5178
vertex -0.1510 2.4610 -0.3302
vertex -0.2245 1.8898 -0.3993
endloop
endfacet
facet normal 0.1267 0.9848 0.1191
outer loop
vertex -0.1372 2.4735 -0.4487
vertex -0.2555 2.4902 -0.4607
vertex -0.2693 2.4776 -0.3422
endloop
endfacet
facet normal 0.1267 0.9848 0.1191
outer loop
vertex -0.1372 2.4735 -0.4487
vertex -0.2693 2.4776 -0.3422
vertex -0.1510 2.4610 -0.3302
endloop
endfacet
facet normal -0.9853 0.1388 -0.0998
outer loop
vertex -0.2555 2.4902 -0.4607
vertex -0.3290 1.9190 -0.5298
vertex -0.3428 1.9065 -0.4113
endloop
endfacet
facet normal -0.9853 0.1388 -0.0998
outer loop
vertex -0.2555 2.4902 -0.4607
vertex -0.3428 1.9065 -0.4113
vertex -0.2693 2.4776 -0.3422
endloop
endfacet
facet normal -0.0814 -0.1324 -0.9878
outer loop
vertex 0.2196 1.8891 -0.4487
vertex 0.2506 2.4750 -0.5298
vertex 0.3378 1.9058 -0.4607
endloop
endfacet
facet normal -0.0814 -0.1324 -0.9878
outer loop
vertex 0.2196 1.8891 -0.4487
vertex 0.1324 2.4583 -0.5178
vertex 0.2506 2.4750 -0.5298
endloop
endfacet
facet normal 0.0814 0.1324 0.9878
outer loop
vertex 0.2294 1.9050 -0.3302
vertex 0.3476 1.9217 -0.3422
vertex 0.2604 2.4909 -0.4113
endloop
endfacet
facet normal 0.0814 0.1324 0.9878
outer loop
vertex 0.2294 1.9050 -0.3302
vertex 0.2604 2.4909 -0.4113
vertex 0.1422 2.4742 -0.3993
endloop
endfacet
facet normal 0.1504 -0.9814 0.1191
outer loop
vertex 0.2196 1.8891 -0.4487
vertex 0.3378 1.9058 -0.4607
vertex 0.3476 1.9217 -0.3422
endloop
endfacet
facet normal 0.1504 -0.9814 0.1191
outer loop
vertex 0.2196 1.8891 -0.4487
vertex 0.3476 1.9217 -0.3422
vertex 0.2294 1.9050 -0.3302
endloop
endfacet
facet normal 0.9853 0.1388 -0.0998
outer loop
vertex 0.3378 1.9058 -0.4607
vertex 0.2506 2.4750 -0.5298
vertex 0.2604 2.4909 -0.4113
endloop
endfacet
facet normal 0.9853 0.1388 -0.0998
outer loop
vertex 0.3378 1.9058 -0.4607
vertex 0.2604 2.4909 -0.4113
vertex 0.3476 1.9217 -0.3422
endloop
endfacet
facet normal -0.1504 0.9814 -0.1191
outer loop
vertex 0.2506 2.4750 -0.5298
vertex 0.1324 2.4583 -0.5178
vertex 0.1422 2.4742 -0.3993
endloop
endfacet
facet normal -0.1504 0.9814 -0.1191
outer loop
vertex 0.2506 2.4750 -0.5298
vertex 0.1422 2.4742 -0.3993
vertex 0.2604 2.4909 -0.4113
endloop
endfacet
facet normal -0.9853 -0.1388 0.0998
outer loop
vertex 0.1324 2.4583 -0.5178
vertex 0.2196 1.8891 -0.4487
vertex 0.2294 1.9050 -0.3302
endloop
endfacet
facet normal -0.9853 -0.1388 0.0998
outer loop
vertex 0.1324 2.4583 -0.5178
vertex 0.2294 1.9050 -0.3302
vertex 0.1422 2.4742 -0.3993
endloop
endfacet
endsolid Warframe1999_Protoframe_LowPoly_v2
